<svg width="100" height="100" viewBox="0 0 100 100" fill="none" xmlns="http://www.w3.org/2000/svg">
<circle cx="50" cy="50" r="49.5" fill="white" stroke="black"/>
<path d="M61.9778 63.9807L61.9707 64.0007C61.2676 66.0053 60.3925 68.5002 57.9862 69.2816C57.5598 69.4192 57.1143 69.4888 56.6662 69.4878C54.9205 69.4878 53.4284 68.5114 51.9912 67.525L55.5771 79.6222C55.6485 79.8631 55.788 80.0781 55.9789 80.2414C56.1697 80.4048 56.4037 80.5094 56.6527 80.5428C56.9017 80.5761 57.155 80.5367 57.3821 80.4293C57.6092 80.322 57.8004 80.1512 57.9326 79.9376L60.5056 75.7837C60.6448 75.5589 60.8492 75.3818 61.0916 75.276C61.3339 75.1702 61.6027 75.1408 61.8622 75.1915L66.6576 76.1287C66.9041 76.1769 67.1593 76.1528 67.3924 76.0593C67.6256 75.9658 67.8266 75.8068 67.9715 75.6016C68.1163 75.3963 68.1986 75.1536 68.2086 74.9026C68.2185 74.6516 68.1557 74.4031 68.0276 74.187L61.9778 63.9807Z" fill="black"/>
<path d="M42.55 69.4877C42.1019 69.4887 41.6564 69.4192 41.23 69.2816C39.0105 68.5607 38.0967 66.3859 37.4161 64.479L31.6615 74.187C31.5334 74.4031 31.4706 74.6516 31.4805 74.9026C31.4905 75.1536 31.5728 75.3963 31.7176 75.6015C31.8625 75.8068 32.0635 75.9658 32.2967 76.0593C32.5298 76.1528 32.785 76.1769 33.0315 76.1287L37.827 75.1915C38.0865 75.1408 38.3553 75.1703 38.5976 75.2761C38.84 75.3819 39.0443 75.5589 39.1836 75.7837L41.7564 79.9376C41.8886 80.1512 42.0798 80.3219 42.3068 80.4293C42.5339 80.5367 42.7872 80.576 43.0361 80.5427C43.2851 80.5094 43.5191 80.4047 43.7099 80.2414C43.9007 80.0781 44.0402 79.863 44.1116 79.6222L47.8177 67.1199C47.6747 67.2169 47.5369 67.3111 47.4165 67.394C45.9202 68.4237 44.3727 69.4877 42.55 69.4877Z" fill="black"/>
<path d="M74.2167 43.4936C74.2167 41.0805 69.4644 39.4483 68.7573 37.2709C68.0245 35.0144 70.8844 30.9053 69.5173 29.027C68.1366 27.1299 63.3359 28.587 61.4389 27.207C59.5605 25.8398 59.4711 20.817 57.2145 20.084C55.037 19.3769 52.0212 23.365 49.6081 23.365C47.195 23.365 44.1796 19.377 42.0023 20.0841C39.7457 20.8167 39.6562 25.8398 37.7779 27.2069C35.8809 28.5874 31.0802 27.13 29.6995 29.0269C28.3325 30.9051 31.1922 35.0143 30.4595 37.2709C29.7525 39.4484 25 41.0809 25 43.4938C25 45.9067 29.7525 47.5391 30.46 49.7164C31.1927 51.9729 28.3331 56.082 29.7 57.9603C31.0806 59.8574 35.8812 58.4003 37.7783 59.7803C39.6565 61.1474 39.746 66.1703 42.0027 66.9033C44.1802 67.6103 47.1959 63.6223 49.6092 63.6223C52.0225 63.6223 55.0379 67.6103 57.2153 66.9034C59.4717 66.1706 59.5613 61.1475 61.4396 59.7806C63.3367 58.4 68.1373 59.8574 69.518 57.9606C70.8851 56.0823 68.0254 51.9732 68.758 49.7166C69.4642 47.5393 74.2167 45.9071 74.2167 43.4936ZM49.6144 56.6151C47.0193 56.6151 44.4824 55.8456 42.3247 54.4038C40.1669 52.9621 38.4851 50.9128 37.492 48.5153C36.4989 46.1177 36.239 43.4795 36.7453 40.9342C37.2516 38.389 38.5012 36.051 40.3362 34.2159C42.1712 32.3809 44.5092 31.1312 47.0544 30.6249C49.5996 30.1186 52.2379 30.3784 54.6355 31.3714C57.033 32.3645 59.0823 34.0462 60.5241 36.204C61.9659 38.3617 62.7355 40.8985 62.7356 43.4936C62.7356 45.2167 62.3963 46.923 61.7369 48.515C61.0775 50.1069 60.111 51.5534 58.8926 52.7719C57.6741 53.9903 56.2277 54.9569 54.6357 55.6163C53.0438 56.2757 51.3375 56.6151 49.6144 56.6151Z" fill="black"/>
<path d="M55.3772 40.3327H52.914C52.6315 40.3327 52.3563 40.2433 52.1278 40.0772C51.8993 39.9112 51.7292 39.6771 51.6419 39.4085L50.8807 37.0658C50.7934 36.7971 50.6233 36.563 50.3948 36.397C50.1663 36.231 49.8911 36.1416 49.6086 36.1416C49.3261 36.1416 49.0509 36.231 48.8224 36.397C48.5939 36.563 48.4238 36.7971 48.3365 37.0658L47.5754 39.4085C47.4881 39.6771 47.318 39.9112 47.0895 40.0772C46.861 40.2432 46.5858 40.3327 46.3033 40.3327H43.8401C43.5575 40.3325 43.2822 40.4219 43.0535 40.5879C42.8249 40.754 42.6547 40.9882 42.5674 41.2569C42.4801 41.5256 42.4801 41.8151 42.5675 42.0838C42.6549 42.3526 42.8252 42.5867 43.0539 42.7527L45.0467 44.2007C45.2752 44.3667 45.4452 44.6008 45.5325 44.8694C45.6198 45.1381 45.6198 45.4274 45.5325 45.6961L44.7713 48.0387C44.6842 48.3073 44.6844 48.5965 44.7717 48.865C44.8591 49.1336 45.0292 49.3675 45.2577 49.5335C45.4861 49.6994 45.7612 49.7888 46.0436 49.7888C46.326 49.7888 46.6011 49.6995 46.8296 49.5336L48.8227 48.0859C49.0512 47.9198 49.3264 47.8303 49.6089 47.8303C49.8914 47.8303 50.1666 47.9198 50.3951 48.0859L52.3876 49.5336C52.6161 49.6995 52.8913 49.7889 53.1738 49.7889C53.4562 49.7888 53.7314 49.6994 53.9599 49.5334C54.1884 49.3674 54.3585 49.1333 54.4457 48.8647C54.533 48.596 54.5331 48.3067 54.4458 48.0381L53.6846 45.6955C53.5974 45.4268 53.5974 45.1374 53.6847 44.8688C53.772 44.6002 53.9421 44.3661 54.1706 44.2001L56.1634 42.7521C56.3918 42.586 56.5619 42.3519 56.6491 42.0833C56.7363 41.8147 56.7363 41.5254 56.649 41.2568C56.5618 40.9882 56.3917 40.7541 56.1632 40.5881C55.9348 40.4221 55.6596 40.3327 55.3772 40.3327Z" fill="black"/>
</svg>
