<svg width="100" height="100" viewBox="0 0 100 100" fill="none" xmlns="http://www.w3.org/2000/svg">
<circle cx="50" cy="50" r="49.5" fill="white" stroke="black"/>
<path d="M50.0019 34C42.1843 34 38.2501 37.4916 36.3364 40.4238C33.7337 44.3945 33.2649 49.7664 35.1345 54.1105C35.4871 54.9264 35.9563 55.6865 36.5274 56.3668C39.454 59.8452 41.3984 64.045 42.1589 68.5306L42.637 71.3932V78.3309C42.637 78.5083 42.7073 78.6785 42.8326 78.804C42.9578 78.9295 43.1276 79 43.3047 79H56.6991C56.8762 79 57.046 78.9295 57.1712 78.804C57.2964 78.6785 57.3668 78.5083 57.3668 78.3309V71.3972L57.8449 68.5346C58.6049 64.0477 60.5494 59.8465 63.4764 56.3668C64.0463 55.6837 64.5137 54.9208 64.8639 54.1025C66.7335 49.7584 66.2701 44.3865 63.662 40.4158C61.7537 37.497 57.8182 34 50.0019 34ZM50.0019 77.6657H43.9724V72.0101H56.0314V77.6657H50.0019ZM49.4917 55.7178C49.5054 55.7326 49.5202 55.7465 49.5358 55.7593C49.5467 55.7719 49.5583 55.784 49.5705 55.7954H49.5786C49.6016 55.8143 49.6262 55.8313 49.652 55.8462L49.6881 55.869C49.7153 55.8827 49.7434 55.8948 49.7722 55.9051C49.7842 55.9051 49.7962 55.9158 49.8082 55.9185C49.8384 55.9274 49.8692 55.9341 49.9004 55.9386H49.9338C49.9653 55.9413 49.997 55.9413 50.0286 55.9386H50.0606C50.0908 55.9353 50.1207 55.9299 50.1501 55.9225L50.1888 55.9145L50.261 55.8864L50.3104 55.865C50.3292 55.8543 50.3475 55.8427 50.3651 55.8302C50.3855 55.818 50.4051 55.8046 50.4239 55.79L50.4332 55.7833L50.4706 55.7459C50.484 55.7325 50.4987 55.7204 50.512 55.7057L54.0469 51.5222L51.4068 70.6598H48.6024L45.9622 51.5222L49.4917 55.7178ZM63.638 53.5765C63.3393 54.2755 62.9402 54.927 62.4534 55.5103C59.3739 59.1725 57.3281 63.5936 56.5281 68.3151L56.1342 70.6732H52.7555L55.6841 49.4305C55.7038 49.287 55.6764 49.1409 55.6062 49.0143C55.5359 48.8877 55.4265 48.7874 55.2945 48.7284C55.1625 48.6694 55.0149 48.6549 54.874 48.6872C54.733 48.7194 54.6064 48.7966 54.513 48.9072L50.0019 54.2443L45.4908 48.9059C45.3974 48.7953 45.2707 48.7181 45.1298 48.6858C44.9889 48.6536 44.8413 48.668 44.7092 48.727C44.5772 48.786 44.4679 48.8864 44.3976 49.013C44.3273 49.1396 44.3 49.2856 44.3196 49.4291L47.2482 70.6718H43.8696L43.469 68.3138C42.6691 63.5919 40.6228 59.1707 37.5423 55.509C37.0564 54.9253 36.6578 54.2739 36.3591 53.5752C34.9703 50.3445 34.766 45.259 37.4488 41.1545C39.1849 38.502 42.7772 35.3383 50.0019 35.3383C57.2266 35.3383 60.8122 38.502 62.5549 41.1545C65.2378 45.259 65.0335 50.3445 63.638 53.5752V53.5765Z" fill="black"/>
<path d="M28.0901 30.2107C27.9688 30.074 27.8063 29.9983 27.6377 30C27.469 30.0017 27.3077 30.0807 27.1884 30.2198C27.0691 30.359 27.0015 30.5472 27 30.7439C26.9986 30.9407 27.0634 31.1303 27.1806 31.2718L31.9021 36.7803C32.0227 36.921 32.1863 37 32.3569 37C32.5274 37 32.691 36.921 32.8117 36.7803C32.9323 36.6395 33 36.4487 33 36.2497C33 36.0507 32.9323 35.8598 32.8117 35.7191L28.0901 30.2107Z" fill="black"/>
<path d="M28.273 53H20.727C20.5342 53 20.3493 53.0527 20.2129 53.1464C20.0766 53.2402 20 53.3674 20 53.5C20 53.6326 20.0766 53.7598 20.2129 53.8536C20.3493 53.9473 20.5342 54 20.727 54H28.273C28.4658 54 28.6507 53.9473 28.7871 53.8536C28.9234 53.7598 29 53.6326 29 53.5C29 53.3674 28.9234 53.2402 28.7871 53.1464C28.6507 53.0527 28.4658 53 28.273 53Z" fill="black"/>
<path d="M50 29C50.2652 29 50.5196 28.9319 50.7071 28.8108C50.8946 28.6896 51 28.5253 51 28.3539V21.6461C51 21.4747 50.8946 21.3104 50.7071 21.1892C50.5196 21.0681 50.2652 21 50 21C49.7348 21 49.4804 21.0681 49.2929 21.1892C49.1054 21.3104 49 21.4747 49 21.6461V28.3539C49 28.5253 49.1054 28.6896 49.2929 28.8108C49.4804 28.9319 49.7348 29 50 29Z" fill="black"/>
<path d="M73.813 30.2197C73.6924 30.079 73.5288 30 73.3583 30C73.1878 30 73.0242 30.079 72.9036 30.2197L68.1805 35.7282C68.0634 35.8697 67.9986 36.0593 68 36.2561C68.0015 36.4528 68.0691 36.641 68.1884 36.7802C68.3076 36.9193 68.4689 36.9983 68.6375 37C68.8062 37.0017 68.9686 36.926 69.0899 36.7893L73.8104 31.2809C73.9313 31.1406 73.9995 30.9499 74 30.7509C74.0005 30.5519 73.9332 30.3609 73.813 30.2197Z" fill="black"/>
<path d="M80.273 53H72.727C72.5342 53 72.3493 53.0527 72.2129 53.1464C72.0766 53.2402 72 53.3674 72 53.5C72 53.6326 72.0766 53.7598 72.2129 53.8536C72.3493 53.9473 72.5342 54 72.727 54H80.273C80.4658 54 80.6507 53.9473 80.7871 53.8536C80.9234 53.7598 81 53.6326 81 53.5C81 53.3674 80.9234 53.2402 80.7871 53.1464C80.6507 53.0527 80.4658 53 80.273 53Z" fill="black"/>
</svg>
