<svg width="100" height="100" viewBox="0 0 100 100" fill="none" xmlns="http://www.w3.org/2000/svg">
<circle cx="50" cy="50" r="49.5" fill="white" stroke="black"/>
<path d="M76.4566 37.1517V18.8287C76.4566 18.3706 76.0783 18 75.6116 18H69.254C68.7873 18 68.4089 18.3706 68.4089 18.8287V30.7919C65.0219 26.5944 59.8288 24.0112 54.1464 24.0112H45.8532C38.1422 24.0112 31.3244 28.7584 28.7189 35.8639L24.3653 36.8591C22.4466 37.2985 21 39.0862 21 41.018V49.6156C21 51.4729 22.3072 53.2395 24.1078 53.8157L35.2073 57.3635C35.6248 57.4962 36.0622 57.5642 36.5074 57.5642C37.7401 57.5642 38.927 57.028 39.7413 56.1587L45.6403 60.1357L45.2223 63.9024C45.1963 64.1362 45.2731 64.3702 45.4336 64.5457C45.5937 64.7206 45.8223 64.8209 46.0624 64.8209H53.9376C54.1778 64.8209 54.4064 64.7206 54.5664 64.5457C54.727 64.3702 54.8037 64.1362 54.7777 63.9024L54.3597 60.1354L60.2555 56.1606C61.0675 57.0383 62.2384 57.5642 63.4922 57.5642C63.9374 57.5642 64.3748 57.4962 64.7927 57.3635L68.4089 56.2076V70.5732C68.4089 72.5227 66.7919 74.108 64.8039 74.108H64.709C62.721 74.108 61.1039 72.5227 61.1039 70.5732V66.2306C61.1039 65.7726 60.7256 65.4019 60.2589 65.4019H53.9013C53.4346 65.4019 53.0563 65.7726 53.0563 66.2306V70.5732C53.0563 76.8741 58.2837 82 64.709 82H64.8039C71.2292 82 76.4566 76.8741 76.4566 70.5732V53.5815C77.9581 52.849 79 51.2714 79 49.6156V41.018C79 39.3762 77.9494 37.8459 76.4566 37.1517ZM70.099 19.6574H74.7666V36.6608L71.2806 35.8639C70.9514 34.9661 70.5563 34.1064 70.099 33.2889V19.6574ZM38.8218 54.6169C38.2375 55.6203 36.8586 56.148 35.7309 55.7871L24.6319 52.2393C23.5429 51.8913 22.6901 50.7389 22.6901 49.6156V41.018C22.6901 39.8559 23.5949 38.7374 24.7494 38.4728L42.3183 34.4564C42.516 34.4119 42.7218 34.39 42.931 34.39C43.8644 34.39 44.858 34.8206 45.422 35.5149L46.8142 37.2265C47.5222 38.0965 47.6316 39.4828 47.0684 40.4498L38.8218 54.6169ZM47.0044 63.1635L49.0559 44.6734H50.9437L52.9956 63.1635H47.0044ZM54.152 58.264L52.5417 43.7549C52.4951 43.3349 52.1328 43.016 51.7017 43.016H48.298C47.8668 43.016 47.5045 43.3349 47.4579 43.7549L45.8479 58.2642L40.6752 54.777L48.5365 41.2721C49.438 39.7231 49.2692 37.5866 48.1354 36.1923L46.7436 34.4815C45.639 33.1228 43.6659 32.4486 41.935 32.8427L30.7155 35.4075C33.3328 29.527 39.2318 25.6686 45.8532 25.6686H54.1464C60.7684 25.6686 66.6674 29.5271 69.284 35.4075L58.0646 32.8427C56.3411 32.4486 54.3614 33.122 53.2564 34.4815L51.8646 36.1923C50.7303 37.5866 50.5616 39.7231 51.4631 41.2721L59.3246 54.7768L54.152 58.264ZM74.7666 70.5732C74.7666 75.9604 70.2975 80.3426 64.8039 80.3426H64.709C59.2154 80.3426 54.7464 75.9604 54.7464 70.5732V67.0593H59.4139V70.5732C59.4139 73.4363 61.7893 75.7654 64.709 75.7654H64.8039C67.7236 75.7654 70.099 73.4363 70.099 70.5732V55.6673L74.7666 54.1754V70.5732ZM77.3099 49.6156C77.3099 50.7389 76.4566 51.8913 75.3677 52.2393L75.3041 52.2596C75.2945 52.2634 75.2844 52.2649 75.2751 52.2689L64.2691 55.7871C63.1382 56.148 61.7629 55.6211 61.1779 54.6169L52.9313 40.4498C52.368 39.4828 52.4774 38.0965 53.1858 37.2257L54.5776 35.5141C55.1421 34.8206 56.1361 34.39 57.069 34.39C57.2782 34.39 57.4841 34.4119 57.6813 34.4564L75.2501 38.4728C76.4051 38.7374 77.3099 39.8559 77.3099 41.018V49.6156Z" fill="black"/>
</svg>
