<svg width="31" height="36" viewBox="0 0 31 36" fill="none" xmlns="http://www.w3.org/2000/svg">
<path d="M31 18C31 27.9411 24.0604 36 15.5 36C6.93959 36 0 27.9411 0 18C0 8.05887 6.93959 0 15.5 0C24.0604 0 15.5 18 31 18Z" fill="#AEECF8"/>
<path d="M26.9476 12.0812V4.34966C26.9476 4.15639 26.791 4 26.5979 4H23.9672C23.7741 4 23.6175 4.15639 23.6175 4.34966V9.39765C22.216 7.62649 20.0671 6.53648 17.7158 6.53648H14.2841C11.0933 6.53648 8.27215 8.53959 7.19402 11.5378L5.39255 11.9578C4.59861 12.1432 4 12.8975 4 13.7126V17.3405C4 18.1242 4.54089 18.8696 5.28599 19.1127L9.87886 20.6098C10.0516 20.6658 10.2326 20.6945 10.4169 20.6945C10.9269 20.6945 11.4181 20.4682 11.755 20.1014L14.196 21.7795L14.023 23.3689C14.0123 23.4676 14.044 23.5663 14.1104 23.6404C14.1767 23.7142 14.2713 23.7565 14.3706 23.7565H17.6294C17.7287 23.7565 17.8233 23.7142 17.8896 23.6404C17.956 23.5663 17.9877 23.4676 17.977 23.3689L17.804 21.7794L20.2436 20.1022C20.5797 20.4725 21.0642 20.6945 21.583 20.6945C21.7672 20.6945 21.9482 20.6658 22.1211 20.6098L23.6175 20.122V26.1837C23.6175 27.0063 22.9484 27.6753 22.1258 27.6753H22.0865C21.2639 27.6753 20.5947 27.0063 20.5947 26.1837V24.3513C20.5947 24.1581 20.4382 24.0016 20.2451 24.0016H17.6143C17.4212 24.0016 17.2647 24.1581 17.2647 24.3513V26.1837C17.2647 28.8424 19.4277 31.0054 22.0865 31.0054H22.1258C24.7845 31.0054 26.9476 28.8424 26.9476 26.1837V19.0139C27.5689 18.7048 28 18.0391 28 17.3405V13.7126C28 13.0199 27.5653 12.3742 26.9476 12.0812ZM24.3168 4.69934H26.2482V11.8741L24.8057 11.5378C24.6696 11.159 24.5061 10.7962 24.3168 10.4513V4.69934ZM11.3745 19.4508C11.1328 19.8742 10.5622 20.0969 10.0955 19.9446L5.50285 18.4475C5.05225 18.3007 4.69934 17.8144 4.69934 17.3405V13.7126C4.69934 13.2223 5.07376 12.7503 5.55149 12.6387L12.8214 10.9439C12.9032 10.9251 12.9883 10.9159 13.0749 10.9159C13.4611 10.9159 13.8723 11.0976 14.1057 11.3906L14.6817 12.1128C14.9747 12.4799 15.02 13.0648 14.7869 13.4729L11.3745 19.4508ZM14.7604 23.0571L15.6093 15.2551H16.3905L17.2396 23.0571H14.7604ZM17.7181 20.9897L17.0517 14.8675C17.0325 14.6903 16.8825 14.5557 16.7041 14.5557H15.2957C15.1173 14.5557 14.9674 14.6903 14.9481 14.8675L14.2819 20.9898L12.1415 19.5184L15.3944 13.8198C15.7675 13.1663 15.6976 12.2648 15.2284 11.6764L14.6525 10.9545C14.1955 10.3812 13.379 10.0967 12.6627 10.263L8.02022 11.3452C9.10321 8.86391 11.5442 7.23584 14.2841 7.23584H17.7158C20.4559 7.23584 22.8968 8.86394 23.9796 11.3452L19.3371 10.263C18.6239 10.0967 17.8047 10.3808 17.3475 10.9545L16.7716 11.6764C16.3022 12.2648 16.2324 13.1663 16.6054 13.8198L19.8585 19.5183L17.7181 20.9897ZM26.2482 26.1837C26.2482 28.4569 24.399 30.306 22.1258 30.306H22.0865C19.8133 30.306 17.964 28.4569 17.964 26.1837V24.701H19.8954V26.1837C19.8954 27.3918 20.8783 28.3746 22.0865 28.3746H22.1258C23.3339 28.3746 24.3168 27.3918 24.3168 26.1837V19.894L26.2482 19.2645V26.1837ZM27.3007 17.3405C27.3007 17.8144 26.9476 18.3007 26.497 18.4475L26.4707 18.4561C26.4667 18.4577 26.4625 18.4584 26.4587 18.46L21.9045 19.9446C21.4365 20.0969 20.8674 19.8746 20.6253 19.4508L17.2129 13.4729C16.9799 13.0648 17.0251 12.4799 17.3183 12.1125L17.8942 11.3902C18.1277 11.0976 18.5391 10.9159 18.9251 10.9159C19.0117 10.9159 19.0969 10.9251 19.1785 10.9439L26.4483 12.6387C26.9262 12.7503 27.3007 13.2223 27.3007 13.7126V17.3405Z" fill="black"/>
<path d="M13.9776 12.6398L13.4181 11.9381C13.3629 11.8687 13.2835 11.823 13.1963 11.81C13.1691 11.8039 13.1275 11.795 13.0812 11.7943C13.0539 11.7967 13.0242 11.797 12.9964 11.8035L5.84823 13.472C5.69013 13.5089 5.57812 13.6499 5.57812 13.8124V17.2934C5.57812 17.4447 5.67545 17.5789 5.81938 17.626L10.2567 19.0725C10.2926 19.0841 10.3291 19.0896 10.3651 19.0896C10.4879 19.0896 10.6052 19.0247 10.6689 18.9134L14.0104 13.0602C14.0394 13.0093 14.0551 12.9519 14.0563 12.8935C14.0568 12.8669 14.0519 12.8112 14.0464 12.7853C14.0351 12.732 14.0116 12.6821 13.9776 12.6398ZM10.2028 18.3192L6.27748 17.0397V14.0901L12.9902 12.523L13.2941 12.9041L10.2028 18.3192Z" fill="black"/>
<path d="M26.1516 13.472L19.0036 11.8035C18.9758 11.797 18.9474 11.796 18.9187 11.7943C18.8745 11.795 18.8346 11.8032 18.8037 11.81C18.7164 11.823 18.637 11.8687 18.5817 11.9381L18.0222 12.6398C17.9869 12.6839 17.9628 12.7361 17.9522 12.7918C17.9471 12.8177 17.943 12.8734 17.944 12.9C17.9461 12.9563 17.9618 13.0113 17.9896 13.0602L21.3311 18.9134C21.3948 19.0247 21.5121 19.0896 21.6348 19.0896C21.6709 19.0896 21.7074 19.0841 21.7433 19.0725L26.1804 17.626C26.3244 17.5789 26.4217 17.4447 26.4217 17.2934V13.8124C26.4217 13.6499 26.3097 13.5089 26.1516 13.472ZM25.7223 17.0397L21.7972 18.3192L18.7058 12.9041L19.0096 12.523L25.7223 14.0901V17.0397Z" fill="black"/>
</svg>
