<svg width="31" height="36" viewBox="0 0 31 36" fill="none" xmlns="http://www.w3.org/2000/svg">
<path d="M31 18C31 27.9411 24.0604 36 15.5 36C6.93959 36 0 27.9411 0 18C0 8.05887 6.93959 0 15.5 0C24.0604 0 15.5 18 31 18Z" fill="#AEECF8"/>
<path d="M27.3056 20.8243C26.8255 20.5756 26.2468 20.6271 25.7539 20.97C25.1323 21.4029 24.1722 21.3644 23.4778 20.88C22.4662 20.1813 21.1073 20.1813 20.0957 20.88C19.3627 21.3858 18.4197 21.3858 17.691 20.88C16.6794 20.1813 15.3206 20.1813 14.309 20.88C13.5803 21.3858 12.633 21.3858 11.9043 20.88C10.9055 20.1899 9.52099 20.1899 8.52224 20.88C7.82783 21.3644 6.86766 21.3986 6.24612 20.97C5.75317 20.6271 5.17021 20.5756 4.69441 20.8243C4.25719 21.0514 4 21.4844 4 21.9859V26.4395C4 27.4297 4.80586 28.2399 5.80032 28.2399H26.1997C27.1899 28.2399 28 27.434 28 26.4395V21.9859C28 21.4887 27.7385 21.0514 27.3056 20.8243ZM4.85301 23.8934C4.85301 23.7176 4.93874 23.5719 5.08877 23.4904C5.28166 23.3876 5.53027 23.4219 5.75746 23.5805C6.67905 24.2191 8.01643 24.1806 9.01089 23.4904C9.72245 22.9975 10.7083 22.9975 11.4156 23.4904C12.4272 24.1891 13.786 24.1891 14.7976 23.4904C15.5092 22.9975 16.4908 22.9975 17.2024 23.4904C18.214 24.1891 19.5728 24.1891 20.5844 23.4904C21.3174 22.9846 22.2604 22.9846 22.9891 23.4904C23.9836 24.1806 25.321 24.2149 26.2425 23.5805C26.4697 23.4219 26.7183 23.3919 26.9112 23.4904C27.0613 23.5676 27.147 23.7133 27.147 23.8934V24.5878C26.7012 24.4206 26.1954 24.4849 25.7539 24.7892C25.1323 25.2179 24.1722 25.1836 23.4778 24.6992C22.4662 24.0005 21.1073 24.0005 20.0957 24.6992C19.3627 25.205 18.4197 25.205 17.691 24.6992C16.6923 24.0048 15.3077 24.0048 14.309 24.6992C13.576 25.205 12.633 25.205 11.9043 24.6992C10.9055 24.0091 9.52099 24.0091 8.52224 24.6992C7.82354 25.1836 6.86766 25.2179 6.24612 24.7892C5.80461 24.4849 5.2988 24.4206 4.85301 24.5878V23.8934ZM5.08877 21.5787C5.16164 21.5401 5.24308 21.523 5.32881 21.523C5.46598 21.523 5.616 21.5744 5.75746 21.6687C6.67905 22.3074 8.01643 22.2688 9.01089 21.5787C9.72245 21.0857 10.7041 21.0857 11.4156 21.5787C12.4272 22.2774 13.786 22.2774 14.7976 21.5787C15.5263 21.0729 16.4737 21.0729 17.2024 21.5787C18.214 22.2774 19.5728 22.2774 20.5844 21.5787C21.3174 21.0729 22.2604 21.0729 22.9891 21.5787C23.9836 22.2688 25.321 22.3031 26.2425 21.6687C26.4697 21.5101 26.7183 21.4801 26.9112 21.5787C27.0613 21.6558 27.147 21.8016 27.147 21.9816V22.676C26.7012 22.5088 26.1954 22.5731 25.7539 22.8775C25.1323 23.3104 24.1722 23.2718 23.4778 22.7875C22.4662 22.0888 21.1073 22.0888 20.0957 22.7875C19.3627 23.2933 18.4197 23.2933 17.691 22.7875C16.6923 22.0973 15.3077 22.0973 14.309 22.7875C13.5803 23.2933 12.633 23.2933 11.9043 22.7875C10.9055 22.0973 9.52099 22.0973 8.52224 22.7875C7.82783 23.2718 6.86766 23.3061 6.24612 22.8775C5.80461 22.5731 5.2988 22.5088 4.85301 22.676V21.9816C4.85301 21.8059 4.93874 21.6601 5.08877 21.5787ZM27.1427 26.4353C27.1427 26.9539 26.7183 27.3783 26.1997 27.3783H5.79603C5.27737 27.3783 4.85301 26.9539 4.85301 26.4353V25.8051C4.85301 25.6294 4.93874 25.4837 5.08877 25.4022C5.28166 25.3036 5.53027 25.3379 5.75746 25.4922C6.67905 26.1266 8.01643 26.0923 9.01089 25.4022C9.72245 24.9093 10.7041 24.9093 11.4156 25.4022C12.4272 26.1009 13.786 26.1009 14.7976 25.4022C15.5092 24.9093 16.4908 24.9093 17.2024 25.4022C18.214 26.1009 19.5728 26.1009 20.5844 25.4022C21.3174 24.8964 22.2604 24.8964 22.9891 25.4022C23.9836 26.0923 25.321 26.1266 26.2425 25.4922C26.4697 25.3336 26.7183 25.2993 26.9112 25.4022C27.0613 25.4794 27.147 25.6294 27.147 25.8051V26.4353H27.1427Z" fill="black"/>
<path d="M20.9912 7.43326C20.6698 7.01319 19.9753 6.87173 19.4738 7.12892C19.1823 7.27466 18.7708 7.51471 18.3593 7.8019C17.5749 7.42898 16.7262 7.21465 15.8346 7.21465C14.2529 7.21465 12.7655 7.83191 11.6467 8.95068C10.6351 9.96229 10.0221 11.3254 9.92784 12.7442C8.83478 12.6242 7.77602 13.3229 7.48454 14.4202L7.41596 14.6774C7.23593 15.3547 7.63885 16.0577 8.31612 16.2377L9.40488 16.5292C9.74352 16.6192 10.0907 16.632 10.4294 16.5678C10.6908 16.7949 10.9995 16.9578 11.3381 17.0478L12.4269 17.3393C12.7569 17.4293 13.0998 17.3822 13.3956 17.215C13.6914 17.0435 13.9014 16.7692 13.9871 16.4392L14.0557 16.1863C14.3386 15.1275 13.8242 14.043 12.8855 13.5629C13.4685 13.0571 14.2357 12.8814 14.973 13.0357C14.8787 13.19 14.7716 13.3529 14.6987 13.4986C14.5487 13.7944 14.5358 14.1416 14.6644 14.4545C14.7844 14.7503 15.0202 14.9732 15.3074 15.0675C15.9246 15.2689 16.7176 15.2561 17.4849 14.9646L19.6496 17.1293C19.9239 17.4036 20.2883 17.5579 20.6783 17.5579C21.0641 17.5579 21.4327 17.4079 21.7071 17.1293C21.9814 16.8549 22.1357 16.4906 22.1357 16.1005C22.1357 15.7105 21.9857 15.3461 21.7071 15.0718C21.6471 15.0118 21.6171 14.926 21.6214 14.8274C21.6299 14.7031 21.6899 14.5788 21.8014 14.4674C22.2386 14.0302 22.4572 13.3272 22.3843 12.5856C22.3372 12.0798 22.1143 11.3511 21.4799 10.5152C21.9686 9.0707 21.3942 7.97336 20.987 7.44184L20.9912 7.43326ZM19.8639 7.89192C20.0053 7.81905 20.2411 7.87048 20.3097 7.95621C20.614 8.35057 20.8927 8.95496 20.7941 9.72224L20.0225 8.95068C19.7653 8.69349 19.4867 8.47488 19.1952 8.27341C19.4438 8.1191 19.6796 7.98622 19.8596 7.89192H19.8639ZM13.4427 12.3113C13.6656 12.0798 13.9057 11.8955 14.1843 11.7926C14.793 11.5654 15.4402 11.6812 15.9032 11.8398C15.7532 11.9726 15.6331 12.1441 15.5003 12.3027C14.8144 12.0755 14.1029 12.0884 13.4427 12.3113ZM18.8137 15.0718L18.2736 14.5317C18.3679 14.4631 18.4708 14.4245 18.5608 14.3431L18.6465 14.4288C18.7794 14.5617 18.8523 14.7374 18.848 14.926C18.848 14.9775 18.8266 15.0246 18.818 15.0718H18.8137ZM21.107 15.6762C21.2184 15.7876 21.2827 15.9376 21.2827 16.0962C21.2827 16.2548 21.2184 16.4049 21.107 16.5206C20.9955 16.632 20.8412 16.6963 20.6826 16.6963C20.524 16.6963 20.374 16.632 20.2625 16.5206L19.4524 15.7105C19.5938 15.4747 19.6967 15.2218 19.701 14.9389C19.7053 14.5188 19.5467 14.1202 19.2509 13.8244L18.8651 13.4386C18.7837 13.3572 18.668 13.3057 18.5479 13.3143C18.4279 13.3143 18.3165 13.37 18.2393 13.4558C17.3263 14.4759 16.1347 14.4374 15.5774 14.2531C15.5088 14.2316 15.4703 14.1673 15.4574 14.1287C15.4231 14.0516 15.4274 13.9573 15.4617 13.8887C15.9246 12.98 16.4519 12.3713 16.9491 12.1698C17.0991 12.1098 17.202 11.9684 17.2149 11.8098C17.2277 11.6469 17.1506 11.4926 17.0134 11.4111C16.9491 11.3725 15.406 10.4295 13.8885 10.9953C12.474 11.5183 11.5867 13.4472 11.771 13.9273C11.8568 14.1373 12.1182 14.2059 12.2254 14.2316C12.9798 14.4331 13.4342 15.2132 13.2284 15.9719L13.1598 16.2248C13.1298 16.332 13.0613 16.422 12.9669 16.4777C12.8726 16.5335 12.7569 16.5463 12.6498 16.5206L11.561 16.2291C11.2952 16.1562 11.0595 16.0148 10.8751 15.8133C10.7637 15.689 10.588 15.6419 10.4251 15.6933C10.1679 15.7748 9.88926 15.7833 9.62349 15.7105L8.53473 15.419C8.31183 15.359 8.17895 15.1318 8.23896 14.9089L8.30755 14.6517C8.40613 14.2831 8.64189 13.9787 8.96766 13.7901C9.29344 13.6015 9.67922 13.5501 10.0479 13.6487L10.2322 13.6958C10.5065 13.7687 10.7766 13.5586 10.7723 13.2714C10.738 11.8912 11.2781 10.541 12.2511 9.56364C13.207 8.60776 14.4801 8.08052 15.8346 8.08052C17.1891 8.08052 18.4622 8.60776 19.4181 9.56364L20.284 10.4295C21.2313 11.3768 21.4885 12.1741 21.5356 12.6713C21.5913 13.25 21.3985 13.6658 21.2013 13.8673C20.9441 14.1245 20.7898 14.4502 20.7726 14.7846C20.7555 15.1232 20.8755 15.449 21.107 15.6804V15.6762Z" fill="black"/>
<path d="M23.3149 19.5553C23.4607 19.641 23.6279 19.6839 23.8122 19.6839C24.0908 19.6839 24.408 19.5853 24.7381 19.3838C25.1453 19.1395 25.5139 18.7794 25.7068 18.4494C26.1226 17.7249 25.874 16.7991 25.1538 16.379C24.4294 15.9632 23.5035 16.2118 23.0835 16.932C22.7063 17.5878 22.5048 19.0838 23.3192 19.5553H23.3149ZM23.8207 17.3606C23.9408 17.1506 24.1637 17.0305 24.3909 17.0305C24.5023 17.0305 24.6137 17.0605 24.7166 17.1163C25.0295 17.2963 25.1367 17.6992 24.9567 18.0164C24.8624 18.1836 24.6095 18.4494 24.288 18.6465C23.9922 18.8266 23.795 18.8437 23.7393 18.8094C23.5421 18.698 23.555 17.8107 23.8165 17.3606H23.8207Z" fill="black"/>
<path d="M6.29332 19.2426C6.48621 19.5727 6.85485 19.9327 7.26206 20.1771C7.59212 20.3742 7.90504 20.4771 8.18794 20.4771C8.36798 20.4771 8.53515 20.4343 8.68518 20.3485C9.49961 19.877 9.30243 18.3853 8.92093 17.7252C8.50514 17.0008 7.57498 16.7522 6.85056 17.1722C6.12615 17.588 5.87753 18.5182 6.29761 19.2426H6.29332ZM7.27492 17.9138C7.3778 17.8538 7.48925 17.8238 7.60498 17.8238C7.83217 17.8238 8.05506 17.9395 8.17509 18.1538C8.43656 18.6039 8.44942 19.4912 8.25224 19.6027C8.19652 19.6327 7.99934 19.6198 7.70357 19.4398C7.38209 19.2469 7.12918 18.9768 7.03488 18.8097C6.85485 18.4968 6.96201 18.0938 7.27492 17.9095V17.9138Z" fill="black"/>
<path d="M14.4072 17.1163C14.4072 17.875 14.9816 19.2681 15.9204 19.2681C16.8591 19.2681 17.4335 17.875 17.4335 17.1163C17.4335 16.2804 16.7562 15.6031 15.9204 15.6031C15.0845 15.6031 14.4072 16.2847 14.4072 17.1163ZM16.5805 17.1163C16.5805 17.6392 16.1475 18.4108 15.9246 18.4108C15.7017 18.4108 15.2688 17.6349 15.2688 17.1163C15.2688 16.7519 15.5646 16.4604 15.9246 16.4604C16.2847 16.4604 16.5805 16.7562 16.5805 17.1163Z" fill="black"/>
<path d="M7.81937 9.7865C7.09495 9.7865 6.50342 10.378 6.50342 11.1024C6.50342 11.8269 7.09495 12.4184 7.81937 12.4184C8.54378 12.4184 9.13532 11.8269 9.13532 11.1024C9.13532 10.378 8.54378 9.7865 7.81937 9.7865ZM7.81937 11.5611C7.57075 11.5611 7.36071 11.3511 7.36071 11.1024C7.36071 10.8538 7.57075 10.6438 7.81937 10.6438C8.06798 10.6438 8.27802 10.8538 8.27802 11.1024C8.27802 11.3511 8.06798 11.5611 7.81937 11.5611Z" fill="black"/>
<path d="M24.1033 15.1831C24.8363 15.1831 25.4279 14.5873 25.4279 13.8586C25.4279 13.1299 24.832 12.5298 24.1033 12.5298C23.3746 12.5298 22.7788 13.1256 22.7788 13.8586C22.7788 14.5916 23.3746 15.1831 24.1033 15.1831ZM24.1033 13.3871C24.3562 13.3871 24.5706 13.6014 24.5706 13.8586C24.5706 14.1158 24.3562 14.3258 24.1033 14.3258C23.979 14.3258 23.8633 14.2787 23.7733 14.1887C23.6833 14.0986 23.6361 13.9829 23.6361 13.8586C23.6361 13.6057 23.8504 13.3871 24.1033 13.3871Z" fill="black"/>
</svg>
