<svg width="31" height="36" viewBox="0 0 31 36" fill="none" xmlns="http://www.w3.org/2000/svg">
<path d="M31 18C31 27.9411 24.0604 36 15.5 36C6.93959 36 0 27.9411 0 18C15.5 18 6.93959 0 15.5 0C24.0604 0 31 8.05887 31 18Z" fill="#AEECF8"/>
<path d="M27.5375 17.011C27.5454 17.011 27.5506 17.011 27.5585 17.0084C27.8107 16.9138 27.9631 16.6852 27.9947 16.3515C28.0157 16.1072 27.9681 15.8917 27.9657 15.8839C27.9631 15.8707 27.9579 15.8602 27.95 15.8523C27.9185 15.8182 27.8659 15.805 27.7921 15.7866C27.7424 15.7735 27.6844 15.7577 27.6266 15.7341L27.6213 15.7315C27.5974 15.7236 27.5714 15.7104 27.5396 15.6999C27.5422 15.6973 27.5451 15.6947 27.5475 15.6921C27.6733 15.5581 27.7025 15.2349 27.7075 15.1981C27.7075 15.1797 27.7022 15.1587 27.6867 15.1456C27.6838 15.1429 27.6812 15.1403 27.6762 15.1377C27.7472 15.0142 27.8233 14.8513 27.8339 14.8276C27.8496 14.7961 27.8365 14.7593 27.8076 14.7436C27.7787 14.7278 27.7419 14.7357 27.7235 14.762C27.7209 14.7646 27.713 14.7725 27.7051 14.7803C27.7106 14.691 27.6999 14.6227 27.6999 14.6174C27.6943 14.5859 27.6683 14.5623 27.6368 14.5623C27.6132 14.5623 27.5921 14.5728 27.5816 14.5912C27.4342 14.2365 27.1612 14.1944 27.043 14.1944C27.0194 14.1944 27.001 14.1971 26.9849 14.1971C26.8614 14.0972 26.683 14.0762 26.4542 14.0762C26.3333 14.0762 26.1888 14.0841 26.0233 14.092H25.9978C25.7064 14.1051 25.5354 14.2549 25.4461 14.3757C25.3725 14.4756 25.3383 14.5754 25.3252 14.6174C24.9807 14.8986 25.0125 15.403 25.0546 15.6632C24.9705 15.6132 24.8785 15.5738 24.7761 15.5397C24.755 15.3584 24.7025 15.0483 24.5866 14.7541C24.429 14.3494 24.2059 14.1051 23.9245 14.0263C23.8615 14.0079 23.7958 14 23.7301 14C23.4017 14 23.0601 14.2233 22.6896 14.6805C22.5478 14.5964 22.377 14.5544 22.1668 14.5544C21.7937 14.5544 21.2918 14.6936 20.6744 14.9669C19.1321 15.6474 15.8137 16.5355 15.6035 16.5906H15.5772C15.4958 16.5906 15.2856 16.6064 15.1437 16.7562C15.0438 16.8639 14.9992 17.0136 15.0097 17.2054C15.0438 17.7677 15.2829 18.3274 15.4747 18.7005C15.6849 19.1024 15.8846 19.3678 15.8951 19.3783C15.9109 19.402 15.945 19.4099 15.9713 19.3993C16.2785 19.2625 16.6886 19.1287 17.0617 19.0184C16.1316 19.4335 15.2225 19.938 14.6261 20.3741C14.2924 20.6185 14.0113 20.7052 13.809 20.7262C13.9719 20.6736 14.0822 20.6185 14.0901 20.6132C14.1085 20.6053 14.1216 20.5867 14.1242 20.5657C14.1269 20.5475 14.1216 20.5265 14.1085 20.5134C13.8063 20.1849 12.5925 19.491 11.9067 19.2548C11.3628 19.0654 10.5457 18.7661 10.2698 18.6637C10.304 18.6006 10.325 18.4903 10.3171 18.2535C10.304 17.8831 9.78113 17.841 9.38964 17.841C9.14792 17.841 8.84577 17.8568 8.44377 17.8988C8.20468 17.9225 7.93405 17.933 7.63978 17.933C6.78324 17.933 5.79008 17.8305 5.21993 17.6807C4.95456 17.6124 4.74174 17.5783 4.56833 17.5783C4.31347 17.5783 4.18998 17.6545 4.10328 17.728C4.02708 17.7937 3.98767 17.912 4.00343 18.0407C4.0192 18.1931 4.10853 18.3192 4.24253 18.3902C4.37915 18.4611 4.48425 18.5898 4.61562 18.7504C4.70758 18.8607 4.81005 18.9866 4.94142 19.1156C5.1306 19.2966 5.38546 19.3915 5.6771 19.3915C5.74541 19.3915 5.81635 19.3862 5.89255 19.3757C5.94247 19.3678 6.0318 19.3678 6.09749 19.3678C6.15792 19.3678 6.22623 19.3704 6.2998 19.3704C6.38125 19.3704 6.4627 19.3731 6.54677 19.3731C6.6834 19.3731 6.78587 19.3704 6.87257 19.3626C7.08277 19.3468 7.39543 19.2942 7.69758 19.2446C7.86311 19.2157 8.03652 19.1865 8.18366 19.1655C8.31503 19.1474 8.39122 19.1392 8.4464 19.1392C8.49632 19.1392 8.52259 19.1447 8.56726 19.155C8.61455 19.1684 8.67761 19.1839 8.79322 19.197C9.0507 19.2259 9.25564 19.3313 9.70493 19.5649C9.80215 19.6145 9.9125 19.6726 10.0386 19.7357C10.5904 20.0192 11.6019 20.8599 11.9645 21.1673C11.8515 21.1807 11.7018 21.2094 11.5494 21.2385C11.4285 21.2622 11.3077 21.2858 11.2026 21.3016C11.1237 21.3147 11.0265 21.3197 10.9135 21.3197C10.7349 21.3197 10.5562 21.304 10.459 21.2934C10.5115 21.1016 10.5037 20.9624 10.4354 20.8678C10.3802 20.7942 10.2882 20.7548 10.17 20.7548C10.0912 20.7548 10.0228 20.773 10.0071 20.7758C9.95191 20.789 8.81949 21.0462 8.22569 21.1776C8.0917 21.2065 7.93931 21.2222 7.77641 21.2222C7.33763 21.2222 6.90936 21.1148 6.67815 21.0567L6.63611 21.0462C6.53101 21.0199 6.25776 20.9043 5.96874 20.7835C5.45377 20.5654 4.87311 20.3184 4.63401 20.3026C4.35288 20.2816 4.17947 20.3292 4.10065 20.4445C4.04311 20.5344 4.04574 20.6552 4.10879 20.805C4.2244 21.0783 4.89176 21.4122 5.09407 21.5065C5.63795 21.7617 6.19496 21.9322 6.58382 21.9587C7.1277 21.9979 8.95375 22.1374 9.63163 22.3344C10.2622 22.5155 13.0841 22.718 13.3704 22.7338C13.6148 22.7472 13.7908 22.8155 13.7935 22.8155C13.7987 22.8181 13.8066 22.8181 13.8118 22.8208C13.8749 22.8237 13.9485 22.8208 14.0273 22.8103C14.0194 22.8208 14.0168 22.8339 14.0168 22.8473C14.0168 22.8788 14.0378 22.9051 14.0667 22.9101C14.2927 22.9626 14.4976 22.9863 14.7131 22.9863C15.0047 22.9863 15.3279 22.9445 15.7982 22.8444C16.2107 22.758 16.6495 22.5872 17.1119 22.4056C17.5268 22.2456 17.9553 22.0801 18.3991 21.9592C19.3423 21.7018 20.1594 21.3757 20.1673 21.3733C20.1883 21.3654 20.2041 21.347 20.2065 21.326C20.2196 21.2525 20.2012 21.1421 20.1697 21.0212C20.2117 21.1158 20.2485 21.2104 20.2774 21.2892C20.285 21.3132 20.3089 21.3287 20.3352 21.3313C20.414 21.4206 20.5034 21.4942 20.6058 21.5549C20.8867 22.0092 21.2627 22.2827 21.717 22.3641C21.8168 22.3823 21.9219 22.3904 22.0273 22.3904C22.2188 22.3904 22.424 22.3615 22.6366 22.3037C23.4327 22.0856 24.192 21.5155 24.6126 21.1555C24.6836 21.3263 24.7913 21.3604 24.8699 21.3604C25.1326 21.3604 25.4269 20.9453 25.4584 20.8951C25.4584 20.8951 25.461 20.8925 25.461 20.8899C25.5979 20.6508 25.6294 20.4774 25.5582 20.3589C25.5057 20.2695 25.4006 20.2223 25.2482 20.2223C25.1589 20.2223 25.0748 20.238 25.0223 20.2485C24.9881 20.2065 24.9434 20.1802 24.8909 20.1697C24.9329 20.1119 24.975 20.0515 25.017 19.9858C25.574 19.7782 26.0443 19.3946 26.42 18.8455C26.6668 18.4829 26.8194 18.1256 26.9035 17.8838C26.9849 17.9889 27.1111 18.052 27.2529 18.052C27.4474 18.052 27.6365 17.9311 27.7837 17.7131C27.9074 17.5291 27.9361 17.3741 27.8677 17.2454C27.7732 17.0667 27.5209 17.0194 27.3869 17.0194H27.3483C27.3063 17.0194 27.2958 17.0037 27.2902 17.001C27.2721 16.9769 27.2695 16.9401 27.2721 16.9164C27.4298 16.9874 27.5165 17.0084 27.5215 17.011H27.5375ZM25.3646 19.3915C25.6878 18.7136 25.6825 18.2328 25.6799 17.9043V17.8045C25.6799 17.5181 25.7482 17.3578 25.7902 17.2869C25.8139 17.3132 25.8483 17.35 25.877 17.3815C25.9978 17.5155 26.1662 17.6994 26.3423 17.7572C26.4024 17.7756 26.4707 17.7887 26.542 17.794C26.3998 18.1802 26.0556 18.929 25.3646 19.3915ZM24.4292 20.7183C24.4424 20.7107 24.4503 20.7052 24.4555 20.7025C24.4634 20.697 24.4715 20.6947 24.4821 20.6947C24.4978 20.6947 24.5136 20.7025 24.5267 20.7131C24.5241 20.7183 24.5241 20.7262 24.5212 20.7341C24.1665 21.057 23.0183 22.0163 22.0307 22.0163C21.9466 22.0163 21.8651 22.0084 21.7861 21.9952C21.5759 21.9558 21.3867 21.8639 21.2214 21.7165C21.2661 21.7194 21.3108 21.7194 21.3554 21.7194C22.5086 21.7194 23.888 21.0178 24.4292 20.7183ZM23.1471 15.1061C23.4991 14.6595 23.6883 14.6227 23.7382 14.6227C23.7487 14.6227 23.7564 14.6227 23.7593 14.6253C23.8959 14.6621 24.0535 15.0116 24.135 15.453C23.8565 15.4556 23.6279 15.5055 23.528 15.5318C23.4886 15.4687 23.394 15.3479 23.1471 15.1061ZM15.0021 22.4603C14.9574 22.4868 14.9049 22.5155 14.8392 22.542C14.8838 22.5155 14.939 22.4892 15.0021 22.4603Z" fill="black"/>
</svg>
