<svg width="31" height="36" viewBox="0 0 31 36" fill="none" xmlns="http://www.w3.org/2000/svg">
<path d="M31 18C31 27.9411 24.0604 36 15.5 36C6.93959 36 0 27.9411 0 18C15.5 18 6.93959 0 15.5 0C24.0604 0 31 8.05887 31 18Z" fill="#AEECF8"/>
<path d="M21.6653 29.7708H16.4645C15.4498 29.7717 14.4432 29.5908 13.4923 29.2366L9.44096 27.7319C9.21907 27.6473 9.03957 27.4785 8.94157 27.2621C8.84357 27.0458 8.835 26.7996 8.91772 26.577C9.00044 26.3544 9.16776 26.1735 9.38323 26.0737C9.59871 25.9739 9.84489 25.9632 10.0682 26.0441L14.1189 27.5488C14.8695 27.8277 15.6639 27.97 16.4645 27.9689H21.6653C21.8915 27.9689 22.1084 27.8791 22.2684 27.7191C22.4283 27.5592 22.5182 27.3423 22.5182 27.1161C22.5182 26.8899 22.4283 26.6729 22.2684 26.513C22.1084 26.353 21.8915 26.2632 21.6653 26.2632C21.4265 26.2632 21.1975 26.1683 21.0287 25.9995C20.8599 25.8306 20.765 25.6016 20.765 25.3629C20.765 25.1241 20.8599 24.8951 21.0287 24.7262C21.1975 24.5574 21.4265 24.4626 21.6653 24.4626H22.8927C23.1189 24.4626 23.3359 24.3727 23.4958 24.2127C23.6558 24.0528 23.7456 23.8359 23.7456 23.6097C23.7456 23.3835 23.6558 23.1665 23.4958 23.0066C23.3359 22.8466 23.1189 22.7568 22.8927 22.7568C22.6539 22.7568 22.4249 22.6619 22.2561 22.4931C22.0873 22.3242 21.9924 22.0952 21.9924 21.8565C21.9924 21.6177 22.0873 21.3887 22.2561 21.2199C22.4249 21.051 22.6539 20.9562 22.8927 20.9562H24.1195C24.2883 20.9562 24.4532 20.9062 24.5935 20.8125C24.7338 20.7188 24.8432 20.5856 24.9077 20.4297C24.9723 20.2738 24.9892 20.1023 24.9563 19.9368C24.9233 19.7713 24.8421 19.6193 24.7227 19.5001C24.6438 19.4205 24.5498 19.3575 24.4462 19.3146C24.3427 19.2718 24.2316 19.2499 24.1195 19.2504C23.8808 19.2504 23.6518 19.1555 23.4829 18.9867C23.3141 18.8179 23.2192 18.5889 23.2192 18.3501C23.2192 18.1113 23.3141 17.8823 23.4829 17.7135C23.6518 17.5446 23.8808 17.4498 24.1195 17.4498H25.347C25.5154 17.4492 25.6799 17.3988 25.8198 17.3049C25.9596 17.2109 26.0685 17.0777 26.1327 16.9219C26.1969 16.7662 26.2136 16.5949 26.1805 16.4297C26.1475 16.2645 26.0663 16.1128 25.9472 15.9937C25.8686 15.9144 25.7751 15.8515 25.6721 15.8085C25.5691 15.7656 25.4586 15.7434 25.347 15.7434H16.8457C16.689 15.7436 16.535 15.7029 16.3989 15.6253C16.2627 15.5478 16.1492 15.436 16.0695 15.3012C15.9898 15.1663 15.9467 15.0129 15.9444 14.8563C15.9421 14.6996 15.9807 14.5451 16.0564 14.4079C16.3299 13.853 16.5162 13.2593 16.6086 12.6475C16.8121 11.3349 16.5612 10.1483 15.8631 9.12075C15.7733 8.99277 15.645 8.89668 15.497 8.84639C15.3489 8.7961 15.1887 8.7942 15.0395 8.84098C14.8902 8.88775 14.7598 8.98078 14.6669 9.1066C14.574 9.23242 14.5236 9.38452 14.5229 9.54089C14.5523 12.6247 13.1274 14.8659 10.4025 16.0231C10.2932 16.072 10.1753 16.0985 10.0557 16.1013C9.93605 16.1041 9.81705 16.0829 9.70566 16.0392C9.59427 15.9954 9.49272 15.9299 9.40696 15.8464C9.3212 15.7629 9.25294 15.6632 9.20618 15.553C9.15942 15.4429 9.13509 15.3245 9.13461 15.2048C9.13414 15.0851 9.15753 14.9665 9.20342 14.856C9.24932 14.7455 9.31678 14.6452 9.40188 14.5611C9.48699 14.4769 9.58801 14.4106 9.69905 14.3659C10.8226 13.8858 11.6413 13.1805 12.1329 12.2604C12.5338 11.5096 12.7331 10.6009 12.7229 9.5595C12.7139 8.42151 13.4155 7.46119 14.5067 7.12147C15.5978 6.78176 16.716 7.16829 17.3546 8.10941C18.8377 10.2917 18.5701 12.5569 18.1637 13.944H25.347C25.9457 13.9441 26.5268 14.1466 26.9958 14.5188C27.4649 14.8909 27.7943 15.4107 27.9305 15.9937C28.0667 16.5768 28.0018 17.1887 27.7462 17.7302C27.4906 18.2716 27.0595 18.7107 26.5228 18.9761C26.8169 19.605 26.8532 20.324 26.6239 20.9793C26.3946 21.6346 25.918 22.1742 25.2959 22.4825C25.5902 23.1115 25.6265 23.8307 25.3971 24.4862C25.1677 25.1416 24.6908 25.6812 24.0685 25.9895C24.258 26.3938 24.3425 26.8394 24.314 27.2851C24.2856 27.7307 24.1452 28.162 23.9059 28.539C23.6665 28.916 23.3359 29.2265 22.9447 29.4418C22.5535 29.6571 22.1143 29.7702 21.6677 29.7708H21.6653Z" fill="black"/>
<path d="M10.0543 28.4376H4.9003C4.66153 28.4376 4.43253 28.3428 4.26369 28.1739C4.09485 28.0051 4 27.7761 4 27.5373V15.1953C4 14.9566 4.09485 14.7276 4.26369 14.5587C4.43253 14.3899 4.66153 14.295 4.9003 14.295H10.0543C10.293 14.295 10.522 14.3899 10.6909 14.5587C10.8597 14.7276 10.9546 14.9566 10.9546 15.1953V27.5373C10.9546 27.7761 10.8597 28.0051 10.6909 28.1739C10.522 28.3428 10.293 28.4376 10.0543 28.4376ZM5.80241 26.637H9.15395V16.0957H5.80061L5.80241 26.637Z" fill="black"/>
</svg>
