<svg width="40" height="40" viewBox="0 0 40 40" fill="none" xmlns="http://www.w3.org/2000/svg">
<path d="M20 40C8.956 40 0 31.044 0 20C0 8.956 8.956 0 20 0C31.044 0 40 8.956 40 20C40 31.044 31.044 40 20 40Z" fill="url(#paint0_linear_165_640)"/>
<path d="M20.0159 8.81986C23.6599 8.81986 24.0919 8.83186 25.5319 8.89986C26.8639 8.95986 27.5879 9.18386 28.0679 9.37186C28.7039 9.61986 29.1599 9.91586 29.6359 10.3919C30.1119 10.8679 30.4079 11.3239 30.6559 11.9599C30.8439 12.4399 31.0639 13.1639 31.1279 14.4959C31.1919 15.9359 31.2079 16.3679 31.2079 20.0119C31.2079 23.6559 31.1959 24.0879 31.1279 25.5279C31.0679 26.8599 30.8439 27.5839 30.6559 28.0639C30.4079 28.6999 30.1119 29.1559 29.6359 29.6319C29.1599 30.1079 28.7039 30.4039 28.0679 30.6519C27.5879 30.8399 26.8639 31.0599 25.5319 31.1239C24.0919 31.1879 23.6599 31.2039 20.0159 31.2039C16.3719 31.2039 15.9399 31.1919 14.4999 31.1239C13.1679 31.0639 12.4439 30.8399 11.9639 30.6519C11.3279 30.4039 10.8719 30.1079 10.3959 29.6319C9.91986 29.1559 9.62386 28.6999 9.37586 28.0639C9.18786 27.5839 8.96786 26.8599 8.90386 25.5279C8.83986 24.0879 8.82386 23.6559 8.82386 20.0119C8.82386 16.3679 8.83586 15.9359 8.90386 14.4959C8.96386 13.1639 9.18786 12.4399 9.37586 11.9599C9.62386 11.3239 9.91986 10.8679 10.3959 10.3919C10.8719 9.91586 11.3279 9.61986 11.9639 9.37186C12.4439 9.18386 13.1679 8.96386 14.4999 8.89986C15.9399 8.83186 16.3719 8.81986 20.0159 8.81986ZM20.0159 6.35986C16.3079 6.35986 15.8439 6.37586 14.3879 6.44386C12.9359 6.51186 11.9439 6.73986 11.0719 7.07986C10.1759 7.42386 9.41186 7.89186 8.65586 8.65186C7.89586 9.41186 7.43186 10.1719 7.07986 11.0719C6.74386 11.9399 6.51186 12.9319 6.44386 14.3879C6.37586 15.8439 6.35986 16.3079 6.35986 20.0159C6.35986 23.7239 6.37586 24.1879 6.44386 25.6439C6.51186 27.0959 6.73986 28.0879 7.07986 28.9599C7.42786 29.8519 7.89586 30.6159 8.65586 31.3719C9.41586 32.1319 10.1759 32.5959 11.0759 32.9479C11.9439 33.2839 12.9359 33.5159 14.3919 33.5839C15.8479 33.6519 16.3119 33.6679 20.0199 33.6679C23.7279 33.6679 24.1919 33.6519 25.6479 33.5839C27.0999 33.5159 28.0919 33.2879 28.9639 32.9479C29.8559 32.5999 30.6199 32.1319 31.3759 31.3719C32.1359 30.6119 32.5999 29.8519 32.9519 28.9519C33.2879 28.0839 33.5199 27.0919 33.5879 25.6359C33.6559 24.1799 33.6719 23.7159 33.6719 20.0079C33.6719 16.2999 33.6559 15.8359 33.5879 14.3799C33.5199 12.9279 33.2919 11.9359 32.9519 11.0639C32.6039 10.1719 32.1359 9.40786 31.3759 8.65186C30.6159 7.89186 29.8559 7.42786 28.9559 7.07586C28.0879 6.73986 27.0959 6.50786 25.6399 6.43986C24.1879 6.37586 23.7239 6.35986 20.0159 6.35986Z" fill="white"/>
<path d="M20.0159 13C16.1439 13 13.0039 16.14 13.0039 20.012C13.0039 23.884 16.1439 27.024 20.0159 27.024C23.8879 27.024 27.0279 23.884 27.0279 20.012C27.0279 16.14 23.8879 13 20.0159 13ZM20.0159 24.564C17.5039 24.564 15.4639 22.528 15.4639 20.012C15.4639 17.496 17.5039 15.46 20.0159 15.46C22.5279 15.46 24.5679 17.496 24.5679 20.012C24.5679 22.528 22.5279 24.564 20.0159 24.564Z" fill="white"/>
<path d="M27.3041 14.364C28.2098 14.364 28.9441 13.6297 28.9441 12.724C28.9441 11.8182 28.2098 11.084 27.3041 11.084C26.3983 11.084 25.6641 11.8182 25.6641 12.724C25.6641 13.6297 26.3983 14.364 27.3041 14.364Z" fill="white"/>
<defs>
<linearGradient id="paint0_linear_165_640" x1="5.85786" y1="34.1421" x2="34.1421" y2="5.85786" gradientUnits="userSpaceOnUse">
<stop stop-color="#FFD521"/>
<stop offset="0.0551048" stop-color="#FFD020"/>
<stop offset="0.1241" stop-color="#FEC01E"/>
<stop offset="0.2004" stop-color="#FCA71B"/>
<stop offset="0.2821" stop-color="#FA8316"/>
<stop offset="0.3681" stop-color="#F85510"/>
<stop offset="0.4563" stop-color="#F51E09"/>
<stop offset="0.5" stop-color="#F30005"/>
<stop offset="0.5035" stop-color="#F20007"/>
<stop offset="0.5966" stop-color="#E1003B"/>
<stop offset="0.6879" stop-color="#D30067"/>
<stop offset="0.7757" stop-color="#C70088"/>
<stop offset="0.8589" stop-color="#BF00A0"/>
<stop offset="0.9357" stop-color="#BB00AF"/>
<stop offset="1" stop-color="#B900B4"/>
</linearGradient>
</defs>
</svg>
