<svg width="32" height="36" viewBox="0 0 32 36" fill="none" xmlns="http://www.w3.org/2000/svg">
<path d="M30.5968 10.775V0.466217C30.5968 0.208517 30.388 0 30.1305 0H26.6229C26.3654 0 26.1567 0.208517 26.1567 0.466217V7.19686C24.288 4.83532 21.4228 3.38198 18.2877 3.38198H13.7121C9.45776 3.38198 5.6962 6.05278 4.2587 10.0505L1.85673 10.6104C0.798146 10.8576 0 11.8633 0 12.9502V17.7873C0 18.8322 0.721189 19.8261 1.71465 20.1503L7.83848 22.1464C8.06886 22.221 8.31017 22.2593 8.55583 22.2593C9.23591 22.2593 9.89078 21.9576 10.34 21.4685L13.5946 23.706L13.364 25.8252C13.3497 25.9568 13.392 26.0884 13.4806 26.1872C13.5689 26.2855 13.695 26.342 13.8275 26.342H18.1725C18.305 26.342 18.4311 26.2855 18.5194 26.1872C18.608 26.0884 18.6503 25.9568 18.636 25.8252L18.4053 23.7059L21.6582 21.4696C22.1062 21.9634 22.7522 22.2593 23.444 22.2593C23.6896 22.2593 23.9309 22.221 24.1615 22.1464L26.1567 21.496V29.5783C26.1567 30.6751 25.2645 31.567 24.1677 31.567H24.1153C23.0185 31.567 22.1263 30.6751 22.1263 29.5783V27.1351C22.1263 26.8774 21.9176 26.6689 21.6601 26.6689H18.1524C17.895 26.6689 17.6862 26.8774 17.6862 27.1351V29.5783C17.6862 33.1232 20.5703 36.0071 24.1153 36.0071H24.1677C27.7127 36.0071 30.5968 33.1232 30.5968 29.5783V20.0186C31.4252 19.6065 32 18.7188 32 17.7873V12.9502C32 12.0265 31.4204 11.1655 30.5968 10.775ZM27.0891 0.932452H29.6643V10.4988L27.741 10.0505C27.5594 9.54529 27.3414 9.06165 27.0891 8.60174V0.932452ZM9.83271 20.6011C9.51034 21.1656 8.74955 21.4625 8.12738 21.2594L2.0038 19.2634C1.403 19.0676 0.932452 18.4193 0.932452 17.7873V12.9502C0.932452 12.2964 1.43169 11.6671 2.06865 11.5182L11.7618 9.25858C11.8709 9.23353 11.9845 9.22122 12.0999 9.22122C12.6148 9.22122 13.163 9.46345 13.4742 9.8541L14.2423 10.8171C14.6329 11.3065 14.6933 12.0865 14.3825 12.6305L9.83271 20.6011ZM14.3472 25.4095L15.4791 15.0068H16.5207L17.6528 25.4095H14.3472ZM18.2907 22.653L17.4023 14.49C17.3766 14.2537 17.1767 14.0743 16.9388 14.0743H15.0609C14.823 14.0743 14.6232 14.2537 14.5974 14.49L13.7092 22.6531L10.8553 20.6912L15.1925 13.0931C15.69 12.2217 15.5968 11.0197 14.9712 10.2352L14.2034 9.2727C13.594 8.50824 12.5053 8.12897 11.5503 8.3507L5.36029 9.79365C6.80428 6.48521 10.0589 4.31445 13.7121 4.31445H18.2877C21.9412 4.31445 25.1958 6.48526 26.6394 9.79365L20.4495 8.3507C19.4985 8.12897 18.4063 8.50779 17.7966 9.2727L17.0288 10.2352C16.4029 11.0197 16.3098 12.2217 16.8073 13.0931L21.1446 20.691L18.2907 22.653ZM29.6643 29.5783C29.6643 32.6092 27.1986 35.0747 24.1677 35.0747H24.1153C21.0844 35.0747 18.6187 32.6092 18.6187 29.5783V27.6013H21.1939V29.5783C21.1939 31.1891 22.5044 32.4995 24.1153 32.4995H24.1677C25.7785 32.4995 27.0891 31.1891 27.0891 29.5783V21.192L29.6643 20.3527V29.5783ZM31.0675 17.7873C31.0675 18.4193 30.5968 19.0676 29.996 19.2634L29.9609 19.2748C29.9556 19.277 29.95 19.2778 29.9449 19.2801L23.8726 21.2594C23.2486 21.4625 22.4899 21.1661 22.1671 20.6011L17.6172 12.6305C17.3065 12.0865 17.3668 11.3065 17.7577 10.8166L18.5256 9.85364C18.837 9.46345 19.3854 9.22122 19.9001 9.22122C20.0156 9.22122 20.1291 9.23353 20.238 9.25858L29.9311 11.5182C30.5683 11.6671 31.0675 12.2964 31.0675 12.9502V17.7873Z" fill="white"/>
<path d="M13.3038 11.5199L12.5578 10.5842C12.4842 10.4918 12.3784 10.4308 12.2621 10.4135C12.2258 10.4053 12.1703 10.3935 12.1086 10.3926C12.0722 10.3958 12.0326 10.3962 11.9955 10.4049L2.46463 12.6295C2.25383 12.6787 2.10449 12.8667 2.10449 13.0834V17.7248C2.10449 17.9265 2.23426 18.1054 2.42616 18.1682L8.34258 20.0969C8.39039 20.1124 8.4391 20.1196 8.48714 20.1196C8.65083 20.1196 8.80723 20.0331 8.89215 19.8847L13.3475 12.0804C13.3862 12.0125 13.4071 11.936 13.4087 11.8582C13.4094 11.8227 13.4028 11.7485 13.3955 11.7139C13.3805 11.6428 13.3491 11.5764 13.3038 11.5199ZM8.27066 19.0925L3.03696 17.3865V13.4536L11.9873 11.3642L12.3925 11.8723L8.27066 19.0925Z" fill="white"/>
<path d="M29.5354 12.6295L20.0048 10.4049C19.9677 10.3962 19.9299 10.3948 19.8916 10.3926C19.8327 10.3935 19.7794 10.4044 19.7382 10.4135C19.6219 10.4308 19.516 10.4918 19.4423 10.5842L18.6963 11.5199C18.6491 11.5786 18.617 11.6483 18.6029 11.7225C18.5961 11.7571 18.5906 11.8313 18.592 11.8668C18.5947 11.9419 18.6157 12.0153 18.6528 12.0804L23.1082 19.8847C23.1931 20.0331 23.3495 20.1196 23.5131 20.1196C23.5612 20.1196 23.6099 20.1124 23.6577 20.0969L29.5739 18.1682C29.7658 18.1054 29.8956 17.9265 29.8956 17.7248V13.0834C29.8956 12.8667 29.7462 12.6787 29.5354 12.6295ZM28.9631 17.3865L23.7296 19.0925L19.6078 11.8723L20.0128 11.3642L28.9631 13.4536V17.3865Z" fill="white"/>
</svg>
