<svg width="32" height="36" viewBox="0 0 32 36" fill="none" xmlns="http://www.w3.org/2000/svg">
<path d="M30.5968 10.7714V0.46265C30.5968 0.20495 30.388 -0.00356674 30.1305 -0.00356674H26.6229C26.3654 -0.00356674 26.1567 0.20495 26.1567 0.46265V7.1933C24.288 4.83175 21.4228 3.37841 18.2877 3.37841H13.7121C9.45776 3.37841 5.6962 6.04921 4.2587 10.0469L1.85673 10.6068C0.798146 10.854 0 11.8598 0 12.9466V17.7837C0 18.8287 0.721189 19.8226 1.71465 20.1467L7.83848 22.1428C8.06886 22.2175 8.31017 22.2557 8.55583 22.2557C9.23591 22.2557 9.89078 21.954 10.34 21.465L13.5946 23.7024L13.364 25.8216C13.3497 25.9532 13.392 26.0848 13.4806 26.1836C13.5689 26.282 13.695 26.3384 13.8275 26.3384H18.1725C18.305 26.3384 18.4311 26.282 18.5194 26.1836C18.608 26.0848 18.6503 25.9532 18.636 25.8216L18.4053 23.7023L21.6582 21.466C22.1062 21.9598 22.7522 22.2557 23.444 22.2557C23.6896 22.2557 23.9309 22.2175 24.1615 22.1428L26.1567 21.4925V29.5747C26.1567 30.6715 25.2645 31.5635 24.1677 31.5635H24.1153C23.0185 31.5635 22.1263 30.6715 22.1263 29.5747V27.1315C22.1263 26.8738 21.9176 26.6653 21.6601 26.6653H18.1524C17.895 26.6653 17.6862 26.8738 17.6862 27.1315V29.5747C17.6862 33.1197 20.5703 36.0036 24.1153 36.0036H24.1677C27.7127 36.0036 30.5968 33.1197 30.5968 29.5747V20.015C31.4252 19.6029 32 18.7153 32 17.7837V12.9466C32 12.0229 31.4204 11.162 30.5968 10.7714ZM27.0891 0.928885H29.6643V10.4952L27.741 10.0469C27.5594 9.54173 27.3414 9.05809 27.0891 8.59817V0.928885ZM9.83271 20.5975C9.51034 21.1621 8.74955 21.4589 8.12738 21.2559L2.0038 19.2598C1.403 19.064 0.932452 18.4157 0.932452 17.7837V12.9466C0.932452 12.2928 1.43169 11.6635 2.06865 11.5147L11.7618 9.25501C11.8709 9.22996 11.9845 9.21765 12.0999 9.21765C12.6148 9.21765 13.163 9.45989 13.4742 9.85053L14.2423 10.8135C14.6329 11.3029 14.6933 12.0829 14.3825 12.627L9.83271 20.5975ZM14.3472 25.406L15.4791 15.0032H16.5207L17.6528 25.406H14.3472ZM18.2907 22.6494L17.4023 14.4864C17.3766 14.2501 17.1767 14.0707 16.9388 14.0707H15.0609C14.823 14.0707 14.6232 14.2501 14.5974 14.4864L13.7092 22.6496L10.8553 20.6876L15.1925 13.0896C15.69 12.2181 15.5968 11.0161 14.9712 10.2316L14.2034 9.26913C13.594 8.50467 12.5053 8.12541 11.5503 8.34713L5.36029 9.79008C6.80428 6.48165 10.0589 4.31088 13.7121 4.31088H18.2877C21.9412 4.31088 25.1958 6.48169 26.6394 9.79008L20.4495 8.34713C19.4985 8.12541 18.4063 8.50422 17.7966 9.26913L17.0288 10.2316C16.4029 11.0161 16.3098 12.2181 16.8073 13.0896L21.1446 20.6875L18.2907 22.6494ZM29.6643 29.5747C29.6643 32.6056 27.1986 35.0711 24.1677 35.0711H24.1153C21.0844 35.0711 18.6187 32.6056 18.6187 29.5747V27.5978H21.1939V29.5747C21.1939 31.1856 22.5044 32.4959 24.1153 32.4959H24.1677C25.7785 32.4959 27.0891 31.1856 27.0891 29.5747V21.1885L29.6643 20.3491V29.5747ZM31.0675 17.7837C31.0675 18.4157 30.5968 19.064 29.996 19.2598L29.9609 19.2713C29.9556 19.2734 29.95 19.2742 29.9449 19.2765L23.8726 21.2559C23.2486 21.4589 22.4899 21.1625 22.1671 20.5975L17.6172 12.627C17.3065 12.0829 17.3668 11.3029 17.7577 10.813L18.5256 9.85007C18.837 9.45989 19.3854 9.21765 19.9001 9.21765C20.0156 9.21765 20.1291 9.22996 20.238 9.25501L29.9311 11.5147C30.5683 11.6635 31.0675 12.2928 31.0675 12.9466V17.7837Z" fill="#2D8EBB"/>
<path d="M13.3028 11.5165L12.5568 10.5808C12.4833 10.4884 12.3774 10.4274 12.2611 10.4101C12.2249 10.4019 12.1693 10.3901 12.1077 10.3892C12.0712 10.3924 12.0316 10.3928 11.9945 10.4014L2.46366 12.6261C2.25285 12.6753 2.10352 12.8633 2.10352 13.08V17.7213C2.10352 17.923 2.23328 18.102 2.42518 18.1648L8.3416 20.0935C8.38942 20.1089 8.43813 20.1162 8.48617 20.1162C8.64986 20.1162 8.80626 20.0297 8.89117 19.8813L13.3465 12.077C13.3852 12.0091 13.4062 11.9326 13.4078 11.8548C13.4084 11.8193 13.4018 11.7451 13.3946 11.7104C13.3795 11.6394 13.3481 11.573 13.3028 11.5165ZM8.26968 19.0891L3.03599 17.3831V13.4502L11.9863 11.3608L12.3915 11.8689L8.26968 19.0891Z" fill="#2D8EBB"/>
<path d="M29.5354 12.6261L20.0048 10.4014C19.9677 10.3928 19.9299 10.3914 19.8916 10.3892C19.8327 10.3901 19.7794 10.401 19.7382 10.4101C19.6219 10.4274 19.516 10.4884 19.4423 10.5808L18.6963 11.5165C18.6491 11.5752 18.617 11.6449 18.6029 11.7191C18.5961 11.7537 18.5906 11.8279 18.592 11.8634C18.5947 11.9385 18.6157 12.0119 18.6528 12.077L23.1082 19.8813C23.1931 20.0297 23.3495 20.1162 23.5131 20.1162C23.5612 20.1162 23.6099 20.1089 23.6577 20.0935L29.5739 18.1648C29.7658 18.102 29.8956 17.923 29.8956 17.7213V13.08C29.8956 12.8633 29.7462 12.6753 29.5354 12.6261ZM28.9631 17.3831L23.7296 19.0891L19.6078 11.8689L20.0128 11.3608L28.9631 13.4502V17.3831Z" fill="#2D8EBB"/>
</svg>
