<svg width="230" height="73" viewBox="0 0 230 73" fill="none" xmlns="http://www.w3.org/2000/svg">
<g clip-path="url(#clip0_165_9751)">
<path d="M19.1333 21.1708C28.7968 12.0418 39.4757 4.87973 53.3082 4.31318C59.9785 4.03525 65.6013 6.80387 70.8392 10.8125C72.2502 11.8921 74.8906 12.2663 76.6544 11.8066C85.6871 9.43352 94.5275 6.28007 103.635 4.27042C107.216 3.47938 111.289 4.92249 115.148 5.33938C119.926 11.2615 124.533 12.3518 131.995 8.19352C142.129 2.53869 153.598 0.315246 165.507 3.19076C171.621 4.66593 176.057 7.91559 178.751 13.1001C187.079 10.2352 195.245 6.7718 203.754 4.66594C211.975 2.62421 220.537 1.97214 228.961 0.700073C229.089 1.43766 229.217 2.18594 229.345 2.92352C226.577 3.40456 223.765 3.74662 221.04 4.40938C209.88 7.09249 198.698 9.72214 187.602 12.6618C182.386 14.0515 180.291 17.2797 180.836 23.2766C181.734 33.0683 179.382 42.2935 171.835 49.4342C168.104 52.9725 162.343 54.3408 159.702 52.3739C156.709 50.1397 155.459 43.7152 158.227 39.5677C162.717 32.8546 167.666 26.3873 172.957 20.2728C176.549 16.1252 176.987 13.4956 172.562 9.85042C164.064 2.84869 154.24 3.6718 144.641 6.28007C137.853 8.11869 131.439 11.3363 124.459 14.0942C125.453 17.3759 126.447 19.9735 127.013 22.6566C129.814 35.869 124.223 46.1525 115.169 54.9928C112.272 57.8149 108.969 60.359 105.506 62.4328C97.6916 67.1149 92.9347 64.3463 92.9026 55.228C92.8706 45.2118 96.2378 36.3394 103.111 29.0918C108.167 23.7577 113.737 18.9046 119.809 13.1428C118.633 12.4694 117.029 11.5501 115.436 10.6201C113.053 9.28386 110.776 7.06042 108.264 6.75042C97.0182 5.36076 87.2799 10.4811 77.4988 14.9601C77.0392 15.1739 77.4988 17.3652 77.5309 18.6373C80.9623 40.8504 72.2075 57.6225 54.1633 69.9263C47.4823 74.4801 40.1171 73.6142 36.9209 67.6601C35.093 64.2501 34.6547 59.397 35.3282 55.4846C37.4554 43.0739 45.4406 34.0839 54.4092 25.8849C55.5851 24.8052 56.8144 23.7897 58.0223 22.7421C62.0523 20.1232 66.0716 17.5042 70.3047 14.7463C64.1154 8.28973 57.0816 5.27524 49.1819 7.02835C36.2582 9.90386 25.5471 16.7452 17.8399 27.7983C9.43781 36.2004 5.39712 46.8794 2.23298 58.0073C1.74126 57.8897 1.24954 57.7721 0.757812 57.6546C1.31367 54.3942 1.32436 50.9094 2.54298 47.9163C4.52057 43.0846 7.37471 38.6056 9.68367 33.9021C10.4213 32.4056 10.6351 30.6525 11.0947 29.017C11.6399 28.1725 12.1744 27.3173 12.7195 26.4728C14.8575 24.709 16.9954 22.9346 19.1333 21.1708ZM71.673 16.0932C64.062 22.368 56.312 27.5311 50.1654 34.1694C43.7516 41.107 37.9578 49.028 38.1502 59.4611C38.332 68.9428 43.9654 72.1711 52.2499 67.4035C64.062 60.6156 70.0695 49.3808 74.0461 37.1411C76.0985 30.8663 76.4192 23.9287 71.673 16.0932ZM121.786 16.6918C112.379 22.2077 105.057 28.9956 100.417 38.4987C97.5206 44.4421 95.4468 50.5032 96.2806 57.2911C96.7937 61.4814 98.8461 62.4756 102.395 60.637C115.287 53.9666 130.594 37.2373 121.786 16.6918ZM177.746 19.749C168.97 26.3766 163.7 34.5115 160.237 43.7901C159.627 45.4149 160.985 49.3487 162.193 49.7121C164.053 50.2787 167.078 49.2846 168.735 47.9056C177.297 40.7649 178.324 31.0052 177.746 19.749Z" fill="#333333"/>
</g>
<defs>
<clipPath id="clip0_165_9751">
<rect width="228.577" height="72.1338" fill="white" transform="translate(0.757812 0.689697)"/>
</clipPath>
</defs>
</svg>
