<svg width="37" height="35" viewBox="0 0 37 35" fill="none" xmlns="http://www.w3.org/2000/svg">
<path d="M11.8094 35C7.74866 27.7072 3.46689 20.7182 0.0967259 13.3149C-0.538633 11.9199 1.90612 7.79005 3.88126 6.78176C9.33706 3.97789 15.2348 1.89226 21.1188 0.0966766C22.5829 -0.345312 25.4973 0.883969 26.4089 2.25137C29.5719 7.00275 32.1271 12.1547 34.9448 17.1409C37.0304 20.8287 36.5608 23.6326 32.4172 25.4972C25.8288 28.453 19.2818 31.547 11.8094 35ZM13.8813 29.7099C19.9034 26.3674 25.1382 23.4668 30.2625 20.6354C23.4669 4.95855 18.7017 3.60496 5.31772 13.1077C7.96965 18.232 10.6492 23.4392 13.8813 29.7099Z" fill="#2D8EBB"/>
</svg>
