<svg width="59" height="59" viewBox="0 0 59 59" fill="none" xmlns="http://www.w3.org/2000/svg">
<g clip-path="url(#clip0_165_9796)">
<path opacity="0.1" d="M49.7198 11.5225C44.3072 6.10978 36.966 3.06897 29.3113 3.06897C21.6566 3.06897 14.3154 6.10979 8.90272 11.5225C3.49003 16.9352 0.449219 24.2763 0.449219 31.931C0.449219 39.5857 3.49004 46.9269 8.90272 52.3396L29.3113 31.931L49.7198 11.5225Z" fill="#2D8EBB"/>
<path d="M10.1693 35.3009C8.13002 35.2923 6.38764 34.7545 4.9421 33.6876C3.49657 32.6206 2.39091 31.0675 1.62512 29.0283C0.859332 26.9891 0.476438 24.5325 0.476438 21.6587C0.476438 18.7934 0.859332 16.3455 1.62512 14.3148C2.39951 12.2842 3.50948 10.7354 4.95501 9.66849C6.40915 8.60154 8.14723 8.06807 10.1693 8.06807C12.1913 8.06807 13.9251 8.60585 15.3706 9.68139C16.8161 10.7483 17.9218 12.2971 18.6876 14.3277C19.462 16.3498 19.8492 18.7934 19.8492 21.6587C19.8492 24.5411 19.4663 27.002 18.7005 29.0412C17.9347 31.0718 16.829 32.6249 15.3835 33.7005C13.938 34.7674 12.1999 35.3009 10.1693 35.3009ZM10.1693 31.8548C11.959 31.8548 13.3572 30.9815 14.3639 29.2348C15.3792 27.4881 15.8869 24.9627 15.8869 21.6587C15.8869 19.4646 15.6545 17.6103 15.1899 16.0959C14.7339 14.573 14.0756 13.42 13.2152 12.637C12.3634 11.8454 11.3481 11.4496 10.1693 11.4496C8.38815 11.4496 6.98994 12.3272 5.97463 14.0825C4.95931 15.8378 4.44735 18.3632 4.43875 21.6587C4.43875 23.8614 4.66676 25.7242 5.12279 27.2472C5.58743 28.7616 6.24566 29.9102 7.0975 30.6932C7.94933 31.4676 8.97325 31.8548 10.1693 31.8548ZM33.6301 35.2234C31.8576 35.2234 30.2744 34.918 28.8805 34.3071C27.4952 33.6962 26.3982 32.8486 25.5893 31.7645C24.7891 30.6717 24.3589 29.4069 24.2987 27.97H28.3513C28.403 28.753 28.6654 29.4327 29.1386 30.0092C29.6205 30.5771 30.2486 31.0159 31.023 31.3257C31.7974 31.6354 32.6578 31.7903 33.6043 31.7903C34.6454 31.7903 35.5661 31.6096 36.3663 31.2482C37.1751 30.8868 37.8075 30.3835 38.2636 29.7382C38.7196 29.0842 38.9476 28.3313 38.9476 27.4795C38.9476 26.5933 38.7196 25.8146 38.2636 25.1434C37.8161 24.4637 37.1579 23.9302 36.2889 23.543C35.4284 23.1558 34.3873 22.9622 33.1655 22.9622H30.9327V19.7098H33.1655C34.1464 19.7098 35.0068 19.5334 35.7468 19.1806C36.4954 18.8278 37.0805 18.3374 37.5021 17.7093C37.9237 17.0725 38.1345 16.3283 38.1345 15.4764C38.1345 14.659 37.9495 13.9492 37.5795 13.3469C37.2181 12.7359 36.7019 12.2584 36.0307 11.9142C35.3682 11.57 34.5852 11.398 33.6818 11.398C32.8213 11.398 32.0168 11.5571 31.2682 11.8755C30.5283 12.1853 29.9259 12.6327 29.4613 13.2178C28.9967 13.7943 28.7471 14.4869 28.7127 15.2957H24.8537C24.8967 13.8674 25.3183 12.6112 26.1185 11.527C26.9273 10.4429 27.9943 9.59535 29.3193 8.98444C30.6444 8.37353 32.1158 8.06807 33.7334 8.06807C35.4284 8.06807 36.8912 8.39934 38.1216 9.06188C39.3606 9.71581 40.3157 10.5892 40.9869 11.6819C41.6666 12.7747 42.0022 13.9707 41.9936 15.2699C42.0022 16.7499 41.5892 18.0061 40.7545 19.0386C39.9285 20.0712 38.8272 20.7638 37.4505 21.1166V21.3231C39.2058 21.5898 40.5652 22.2868 41.5289 23.414C42.5012 24.5411 42.9831 25.9393 42.9745 27.6086C42.9831 29.0627 42.5787 30.3663 41.7612 31.5193C40.9524 32.6723 39.8468 33.58 38.4443 34.2425C37.0418 34.8965 35.437 35.2234 33.6301 35.2234Z" fill="black"/>
</g>
<defs>
<clipPath id="clip0_165_9796">
<rect width="57.7241" height="57.7241" fill="white" transform="translate(0.447266 0.93103)"/>
</clipPath>
</defs>
</svg>
