<svg width="59" height="59" viewBox="0 0 59 59" fill="none" xmlns="http://www.w3.org/2000/svg">
<g clip-path="url(#clip0_165_9804)">
<path opacity="0.1" d="M8.90125 11.178C14.3139 5.7653 21.6551 2.72449 29.3098 2.72449C36.9645 2.72449 44.3057 5.76531 49.7184 11.178C55.1311 16.5907 58.1719 23.9319 58.1719 31.5866C58.1719 39.2413 55.1311 46.5824 49.7184 51.9951L29.3098 31.5866L8.90125 11.178Z" fill="#2D8EBB"/>
<path d="M10.4887 34.9564C8.44946 34.9478 6.70707 34.41 5.26154 33.3431C3.81601 32.2761 2.71035 30.7231 1.94456 28.6838C1.17877 26.6446 0.795877 24.188 0.795877 21.3142C0.795877 18.4489 1.17877 16.001 1.94456 13.9704C2.71895 11.9397 3.82891 10.3909 5.27445 9.324C6.72859 8.25706 8.46667 7.72359 10.4887 7.72359C12.5107 7.72359 14.2445 8.26136 15.69 9.33691C17.1356 10.4038 18.2412 11.9526 19.007 13.9833C19.7814 16.0053 20.1686 18.4489 20.1686 21.3142C20.1686 24.1966 19.7857 26.6575 19.0199 28.6967C18.2541 30.7274 17.1485 32.2804 15.7029 33.356C14.2574 34.4229 12.5193 34.9564 10.4887 34.9564ZM10.4887 31.5104C12.2784 31.5104 13.6766 30.637 14.6833 28.8903C15.6986 27.1436 16.2063 24.6183 16.2063 21.3142C16.2063 19.1201 15.974 17.2658 15.5093 15.7515C15.0533 14.2285 14.3951 13.0755 13.5346 12.2925C12.6828 11.5009 11.6675 11.1051 10.4887 11.1051C8.70759 11.1051 7.30938 11.9827 6.29407 13.738C5.27875 15.4933 4.76679 18.0187 4.75819 21.3142C4.75819 23.5169 4.9862 25.3797 5.44223 26.9027C5.90687 28.4171 6.5651 29.5658 7.41693 30.3488C8.26877 31.1232 9.29269 31.5104 10.4887 31.5104ZM33.9754 34.879C32.7966 34.8618 31.635 34.6466 30.4906 34.2336C29.3548 33.8206 28.3223 33.1323 27.393 32.1686C26.4638 31.2049 25.7195 29.9099 25.1602 28.2837C24.6095 26.6575 24.3342 24.6269 24.3342 22.1918C24.3342 19.8859 24.5622 17.838 25.0182 16.0483C25.4829 14.2586 26.1497 12.7485 27.0187 11.5181C27.8878 10.2791 28.9375 9.33691 30.1679 8.69158C31.3984 8.04625 32.7794 7.72359 34.3109 7.72359C35.8855 7.72359 37.2838 8.03335 38.5056 8.65286C39.7274 9.27238 40.7169 10.1285 41.4741 11.2213C42.2399 12.314 42.726 13.5573 42.9325 14.9513H38.996C38.7293 13.8499 38.2001 12.9507 37.4085 12.2538C36.6169 11.5568 35.5844 11.2084 34.3109 11.2084C32.375 11.2084 30.8649 12.0516 29.7807 13.738C28.7052 15.4245 28.1631 17.7692 28.1545 20.7721H28.3481C28.8042 20.0235 29.3634 19.3868 30.026 18.8619C30.6971 18.3285 31.4457 17.9198 32.2717 17.6358C33.1063 17.3433 33.984 17.197 34.9046 17.197C36.4362 17.197 37.8215 17.5713 39.0606 18.3199C40.3082 19.0598 41.302 20.0838 42.042 21.3916C42.7819 22.6995 43.1519 24.1966 43.1519 25.8831C43.1519 27.5696 42.769 29.0968 42.0032 30.4649C41.2461 31.833 40.1791 32.9172 38.8024 33.7174C37.4257 34.509 35.8167 34.8962 33.9754 34.879ZM33.9625 31.5233C34.9778 31.5233 35.8855 31.2737 36.6858 30.7747C37.486 30.2756 38.1184 29.6045 38.583 28.7613C39.0476 27.918 39.28 26.9759 39.28 25.9347C39.28 24.9194 39.052 23.9944 38.5959 23.1598C38.1485 22.3252 37.529 21.6627 36.7374 21.1722C35.9544 20.6818 35.0595 20.4365 34.0528 20.4365C33.287 20.4365 32.5772 20.5828 31.9232 20.8754C31.2779 21.1679 30.71 21.5723 30.2196 22.0886C29.7291 22.6048 29.3419 23.1985 29.058 23.8697C28.7826 24.5322 28.645 25.2335 28.645 25.9734C28.645 26.9629 28.873 27.8793 29.329 28.7225C29.7937 29.5658 30.4261 30.2455 31.2263 30.7618C32.0351 31.2694 32.9472 31.5233 33.9625 31.5233Z" fill="black"/>
</g>
<defs>
<clipPath id="clip0_165_9804">
<rect width="57.7241" height="57.7241" fill="white" transform="translate(0.447266 0.586304)"/>
</clipPath>
</defs>
</svg>
