<svg width="59" height="59" viewBox="0 0 59 59" fill="none" xmlns="http://www.w3.org/2000/svg">
<g clip-path="url(#clip0_165_9780)">
<path opacity="0.1" d="M8.86804 11.5225C14.2807 6.10978 21.6219 3.06897 29.2766 3.06897C36.9313 3.06897 44.2725 6.10979 49.6852 11.5225C55.0979 16.9352 58.1387 24.2763 58.1387 31.931C58.1387 39.5857 55.0979 46.9269 49.6852 52.3396L29.2766 31.931L8.86804 11.5225Z" fill="#2D8EBB"/>
<path d="M11.3402 35.3009C9.30095 35.2923 7.55857 34.7545 6.11304 33.6876C4.6675 32.6206 3.56184 31.0675 2.79605 29.0283C2.03026 26.9891 1.64737 24.5325 1.64737 21.6587C1.64737 18.7934 2.03026 16.3455 2.79605 14.3148C3.57045 12.2842 4.68041 10.7354 6.12594 9.66849C7.58008 8.60154 9.31816 8.06807 11.3402 8.06807C13.3622 8.06807 15.096 8.60585 16.5415 9.68139C17.9871 10.7483 19.0927 12.2971 19.8585 14.3277C20.6329 16.3498 21.0201 18.7934 21.0201 21.6587C21.0201 24.5411 20.6372 27.002 19.8714 29.0412C19.1056 31.0718 18 32.6249 16.5544 33.7005C15.1089 34.7674 13.3708 35.3009 11.3402 35.3009ZM11.3402 31.8548C13.1299 31.8548 14.5281 30.9815 15.5348 29.2348C16.5501 27.4881 17.0578 24.9627 17.0578 21.6587C17.0578 19.4646 16.8255 17.6103 16.3608 16.0959C15.9048 14.573 15.2466 13.42 14.3861 12.637C13.5343 11.8454 12.519 11.4496 11.3402 11.4496C9.55908 11.4496 8.16087 12.3272 7.14556 14.0825C6.13024 15.8378 5.61828 18.3632 5.60968 21.6587C5.60968 23.8614 5.8377 25.7242 6.29373 27.2472C6.75836 28.7616 7.4166 29.9102 8.26843 30.6932C9.12026 31.4676 10.1442 31.8548 11.3402 31.8548ZM25.5987 34.8621V31.971L34.5429 22.7041C35.498 21.6974 36.2853 20.8154 36.9048 20.0583C37.5329 19.2925 38.0019 18.5654 38.3116 17.877C38.6214 17.1887 38.7763 16.4573 38.7763 15.6829C38.7763 14.8053 38.5698 14.0481 38.1568 13.4114C37.7437 12.7661 37.1802 12.2713 36.466 11.9271C35.7518 11.5744 34.9473 11.398 34.0525 11.398C33.106 11.398 32.28 11.5916 31.5744 11.9788C30.8689 12.366 30.3268 12.9123 29.9482 13.6179C29.5696 14.3234 29.3803 15.1495 29.3803 16.0959H25.5729C25.5729 14.4869 25.9429 13.0801 26.6828 11.8755C27.4228 10.6709 28.4381 9.73732 29.7288 9.07478C31.0194 8.40364 32.4865 8.06807 34.1299 8.06807C35.7906 8.06807 37.2533 8.39934 38.5181 9.06188C39.7916 9.71581 40.7854 10.6107 41.4996 11.7464C42.2137 12.8736 42.5708 14.1471 42.5708 15.5668C42.5708 16.5477 42.3858 17.5071 42.0158 18.4449C41.6544 19.3828 41.022 20.4282 40.1186 21.5812C39.2151 22.7256 37.9589 24.1152 36.3498 25.75L31.0969 31.2482V31.4418H42.9967V34.8621H25.5987Z" fill="black"/>
</g>
<defs>
<clipPath id="clip0_165_9780">
<rect width="57.7241" height="57.7241" fill="white" transform="translate(0.414062 0.93103)"/>
</clipPath>
</defs>
</svg>
