<svg width="59" height="59" viewBox="0 0 59 59" fill="none" xmlns="http://www.w3.org/2000/svg">
<path opacity="0.1" d="M8.83484 11.1779C14.2475 5.76518 21.5887 2.72436 29.2434 2.72437C36.8981 2.72437 44.2393 5.76518 49.652 11.1779C55.0647 16.5906 58.1055 23.9317 58.1055 31.5864C58.1055 39.2411 55.0647 46.5823 49.652 51.995L29.2434 31.5864L8.83484 11.1779Z" fill="#2D8EBB"/>
<path d="M9.6776 34.9563C7.63837 34.9477 5.89599 34.4099 4.45045 33.343C3.00492 32.276 1.89926 30.7229 1.13347 28.6837C0.367683 26.6445 -0.0152116 24.1879 -0.0152116 21.3141C-0.0152116 18.4488 0.367683 16.0009 1.13347 13.9702C1.90786 11.9396 3.01783 10.3908 4.46336 9.32388C5.9175 8.25694 7.65558 7.72347 9.6776 7.72347C11.6996 7.72347 13.4334 8.26124 14.8789 9.33679C16.3245 10.4037 17.4301 11.9525 18.1959 13.9831C18.9703 16.0052 19.3575 18.4488 19.3575 21.3141C19.3575 24.1965 18.9746 26.6574 18.2088 28.6966C17.443 30.7272 16.3374 32.2803 14.8918 33.3559C13.4463 34.4228 11.7082 34.9563 9.6776 34.9563ZM9.6776 31.5102C11.4673 31.5102 12.8655 30.6369 13.8722 28.8902C14.8875 27.1435 15.3952 24.6181 15.3952 21.3141C15.3952 19.1199 15.1629 17.2657 14.6982 15.7513C14.2422 14.2284 13.584 13.0754 12.7235 12.2924C11.8717 11.5008 10.8564 11.105 9.6776 11.105C7.8965 11.105 6.49829 11.9826 5.48298 13.7379C4.46766 15.4932 3.9557 18.0186 3.9471 21.3141C3.9471 23.5168 4.17511 25.3796 4.63114 26.9026C5.09578 28.417 5.75401 29.5656 6.60585 30.3486C7.45768 31.123 8.4816 31.5102 9.6776 31.5102ZM23.3811 29.3548V26.1282L34.8034 8.08485H37.346V12.8345H35.7327L27.5628 25.7668V25.9733H43.2185V29.3548H23.3811ZM35.9134 34.5175V28.3739L35.9392 26.9026V8.08485H39.7208V34.5175H35.9134Z" fill="black"/>
</svg>
