<svg width="59" height="59" viewBox="0 0 59 59" fill="none" xmlns="http://www.w3.org/2000/svg">
<path opacity="0.1" d="M49.6495 11.5223C44.2368 6.10966 36.8957 3.06885 29.241 3.06885C21.5863 3.06885 14.2451 6.10967 8.83241 11.5224C3.41972 16.935 0.378906 24.2762 0.378906 31.9309C0.378906 39.5856 3.41972 46.9268 8.83241 52.3395L29.241 31.9309L49.6495 11.5223Z" fill="#2D8EBB"/>
<path d="M15.6914 35.3008C13.6522 35.2922 11.9098 34.7544 10.4643 33.6874C9.01873 32.6205 7.91307 31.0674 7.14728 29.0282C6.38149 26.9889 5.9986 24.5324 5.9986 21.6585C5.9986 18.7933 6.38149 16.3453 7.14728 14.3147C7.92167 12.2841 9.03164 10.7353 10.4772 9.66836C11.9313 8.60142 13.6694 8.06795 15.6914 8.06795C17.7134 8.06795 19.4472 8.60572 20.8928 9.68127C22.3383 10.7482 23.4439 12.297 24.2097 14.3276C24.9841 16.3497 25.3713 18.7933 25.3713 21.6585C25.3713 24.541 24.9884 27.0019 24.2226 29.0411C23.4569 31.0717 22.3512 32.6248 20.9057 33.7003C19.4601 34.7673 17.722 35.3008 15.6914 35.3008ZM15.6914 31.8547C17.4811 31.8547 18.8793 30.9814 19.886 29.2347C20.9014 27.488 21.409 24.9626 21.409 21.6585C21.409 19.4644 21.1767 17.6102 20.7121 16.0958C20.256 14.5728 19.5978 13.4199 18.7374 12.6369C17.8855 11.8453 16.8702 11.4495 15.6914 11.4495C13.9103 11.4495 12.5121 12.3271 11.4968 14.0824C10.4815 15.8377 9.96951 18.3631 9.96091 21.6585C9.96091 23.8613 10.1889 25.7241 10.645 27.2471C11.1096 28.7614 11.7678 29.9101 12.6197 30.6931C13.4715 31.4675 14.4954 31.8547 15.6914 31.8547ZM39.9783 8.42933V34.8619H35.9773V12.4304H35.8224L29.4982 16.5605V12.7401L36.0934 8.42933H39.9783Z" fill="black"/>
</svg>
