<svg width="59" height="59" viewBox="0 0 59 59" fill="none" xmlns="http://www.w3.org/2000/svg">
<path opacity="0.1" d="M49.6827 11.178C44.2701 5.7653 36.9289 2.72449 29.2742 2.72449C21.6195 2.72449 14.2783 5.76531 8.86561 11.178C3.45292 16.5907 0.412109 23.9319 0.412109 31.5866C0.41211 39.2413 3.45293 46.5824 8.86561 51.9951L29.2742 31.5866L49.6827 11.178Z" fill="#2D8EBB"/>
<path d="M10.0195 34.9564C7.98023 34.9478 6.23785 34.41 4.79232 33.3431C3.34679 32.2761 2.24112 30.7231 1.47534 28.6838C0.709548 26.6446 0.326654 24.188 0.326654 21.3142C0.326654 18.4489 0.709548 16.001 1.47534 13.9704C2.24973 11.9397 3.35969 10.3909 4.80522 9.324C6.25936 8.25706 7.99744 7.72359 10.0195 7.72359C12.0415 7.72359 13.7753 8.26136 15.2208 9.33691C16.6663 10.4038 17.772 11.9526 18.5378 13.9833C19.3122 16.0053 19.6994 18.4489 19.6994 21.3142C19.6994 24.1966 19.3165 26.6575 18.5507 28.6967C17.7849 30.7274 16.6792 32.2804 15.2337 33.356C13.7882 34.4229 12.0501 34.9564 10.0195 34.9564ZM10.0195 31.5104C11.8092 31.5104 13.2074 30.637 14.2141 28.8903C15.2294 27.1436 15.7371 24.6183 15.7371 21.3142C15.7371 19.1201 15.5048 17.2658 15.0401 15.7515C14.5841 14.2285 13.9258 13.0755 13.0654 12.2925C12.2136 11.5009 11.1983 11.1051 10.0195 11.1051C8.23837 11.1051 6.84016 11.9827 5.82484 13.738C4.80953 15.4933 4.29757 18.0187 4.28896 21.3142C4.28896 23.5169 4.51698 25.3797 4.97301 26.9027C5.43765 28.4171 6.09588 29.5658 6.94771 30.3488C7.79954 31.1232 8.82346 31.5104 10.0195 31.5104ZM33.0028 34.879C31.3852 34.879 29.931 34.5692 28.6404 33.9497C27.3583 33.3216 26.3344 32.4611 25.5686 31.3684C24.8028 30.2756 24.3941 29.028 24.3425 27.6255H28.2145C28.3091 28.7613 28.8125 29.6948 29.7245 30.4262C30.6366 31.1576 31.7294 31.5233 33.0028 31.5233C34.0181 31.5233 34.9173 31.2909 35.7003 30.8263C36.4919 30.3531 37.1114 29.7034 37.5588 28.8774C38.0148 28.0514 38.2429 27.1092 38.2429 26.0509C38.2429 24.9753 38.0105 24.016 37.5459 23.1727C37.0813 22.3295 36.4402 21.667 35.6228 21.1851C34.814 20.7033 33.8847 20.458 32.835 20.4494C32.0348 20.4494 31.2303 20.5871 30.4215 20.8625C29.6127 21.1378 28.9587 21.4992 28.4597 21.9466L24.8071 21.4045L26.2914 8.08497H40.8242V11.5052H29.6084L28.7695 18.9007H28.9243C29.4406 18.4016 30.1246 17.9843 30.9765 17.6487C31.8369 17.3132 32.7576 17.1454 33.7385 17.1454C35.3475 17.1454 36.7801 17.5283 38.0364 18.2941C39.3012 19.0598 40.295 20.1053 41.0178 21.4303C41.7491 22.7468 42.1105 24.2612 42.1019 25.9734C42.1105 27.6857 41.7233 29.213 40.9403 30.5553C40.1659 31.8975 39.0904 32.9559 37.7137 33.7303C36.3456 34.4961 34.7753 34.879 33.0028 34.879Z" fill="black"/>
</svg>
