<svg width="41" height="40" viewBox="0 0 41 40" fill="none" xmlns="http://www.w3.org/2000/svg">
<path d="M20.7986 39.9663C9.76229 39.9663 0.8125 31.0165 0.8125 19.9801C0.8125 8.9438 9.76229 -0.00598145 20.7986 -0.00598145C31.835 -0.00598145 40.7847 8.9438 40.7847 19.9801C40.7847 31.0165 31.835 39.9663 20.7986 39.9663Z" fill="url(#paint0_linear_165_10272)"/>
<path d="M20.8145 8.80778C24.456 8.80778 24.8877 8.81977 26.3267 8.88772C27.6577 8.94768 28.3812 9.17153 28.8609 9.3594C29.4965 9.60723 29.9521 9.90302 30.4278 10.3787C30.9035 10.8544 31.1993 11.31 31.4471 11.9456C31.635 12.4253 31.8548 13.1488 31.9188 14.4798C31.9827 15.9188 31.9987 16.3505 31.9987 19.992C31.9987 23.6335 31.9867 24.0652 31.9188 25.5042C31.8588 26.8353 31.635 27.5588 31.4471 28.0384C31.1993 28.674 30.9035 29.1297 30.4278 29.6053C29.9521 30.081 29.4965 30.3768 28.8609 30.6246C28.3812 30.8125 27.6577 31.0323 26.3267 31.0963C24.8877 31.1603 24.456 31.1762 20.8145 31.1762C17.173 31.1762 16.7413 31.1643 15.3023 31.0963C13.9712 31.0363 13.2477 30.8125 12.7681 30.6246C12.1325 30.3768 11.6768 30.081 11.2012 29.6053C10.7255 29.1297 10.4297 28.674 10.1819 28.0384C9.99401 27.5588 9.77416 26.8353 9.7102 25.5042C9.64625 24.0652 9.63026 23.6335 9.63026 19.992C9.63026 16.3505 9.64225 15.9188 9.7102 14.4798C9.77016 13.1488 9.99401 12.4253 10.1819 11.9456C10.4297 11.31 10.7255 10.8544 11.2012 10.3787C11.6768 9.90302 12.1325 9.60723 12.7681 9.3594C13.2477 9.17153 13.9712 8.95168 15.3023 8.88772C16.7413 8.81977 17.173 8.80778 20.8145 8.80778ZM20.8145 6.34949C17.1091 6.34949 16.6454 6.36548 15.1904 6.43343C13.7394 6.50138 12.7481 6.72922 11.8767 7.06899C10.9813 7.41275 10.2179 7.88042 9.46238 8.6399C8.7029 9.39937 8.23922 10.1588 7.88747 11.0582C7.5517 11.9256 7.31986 12.9169 7.25191 14.3719C7.18396 15.8269 7.16797 16.2906 7.16797 19.996C7.16797 23.7014 7.18396 24.1651 7.25191 25.6201C7.31986 27.0711 7.54771 28.0624 7.88747 28.9338C8.23523 29.8252 8.7029 30.5887 9.46238 31.3441C10.2218 32.1036 10.9813 32.5673 11.8807 32.919C12.7481 33.2548 13.7394 33.4866 15.1944 33.5546C16.6494 33.6225 17.1131 33.6385 20.8185 33.6385C24.5239 33.6385 24.9876 33.6225 26.4426 33.5546C27.8936 33.4866 28.8849 33.2588 29.7563 32.919C30.6477 32.5713 31.4111 32.1036 32.1666 31.3441C32.9261 30.5847 33.3898 29.8252 33.7415 28.9258C34.0773 28.0584 34.3091 27.0671 34.3771 25.6121C34.445 24.1571 34.461 23.6934 34.461 19.988C34.461 16.2826 34.445 15.8189 34.3771 14.3639C34.3091 12.9129 34.0813 11.9216 33.7415 11.0502C33.3938 10.1588 32.9261 9.39537 32.1666 8.6399C31.4071 7.88042 30.6477 7.41675 29.7483 7.06499C28.8809 6.72922 27.8896 6.49738 26.4346 6.42943C24.9836 6.36548 24.5199 6.34949 20.8145 6.34949Z" fill="white"/>
<path d="M20.8157 12.985C16.9464 12.985 13.8086 16.1228 13.8086 19.9921C13.8086 23.8614 16.9464 26.9993 20.8157 26.9993C24.685 26.9993 27.8229 23.8614 27.8229 19.9921C27.8229 16.1228 24.685 12.985 20.8157 12.985ZM20.8157 24.541C18.3055 24.541 16.2669 22.5064 16.2669 19.9921C16.2669 17.4779 18.3055 15.4433 20.8157 15.4433C23.326 15.4433 25.3646 17.4779 25.3646 19.9921C25.3646 22.5064 23.326 24.541 20.8157 24.541Z" fill="white"/>
<path d="M28.0978 14.348C29.003 14.348 29.7367 13.6143 29.7367 12.7092C29.7367 11.8041 29.003 11.0703 28.0978 11.0703C27.1927 11.0703 26.459 11.8041 26.459 12.7092C26.459 13.6143 27.1927 14.348 28.0978 14.348Z" fill="white"/>
<defs>
<linearGradient id="paint0_linear_165_10272" x1="6.66629" y1="34.1125" x2="34.9309" y2="5.84781" gradientUnits="userSpaceOnUse">
<stop stop-color="#FFD521"/>
<stop offset="0.0551048" stop-color="#FFD020"/>
<stop offset="0.1241" stop-color="#FEC01E"/>
<stop offset="0.2004" stop-color="#FCA71B"/>
<stop offset="0.2821" stop-color="#FA8316"/>
<stop offset="0.3681" stop-color="#F85510"/>
<stop offset="0.4563" stop-color="#F51E09"/>
<stop offset="0.5" stop-color="#F30005"/>
<stop offset="0.5035" stop-color="#F20007"/>
<stop offset="0.5966" stop-color="#E1003B"/>
<stop offset="0.6879" stop-color="#D30067"/>
<stop offset="0.7757" stop-color="#C70088"/>
<stop offset="0.8589" stop-color="#BF00A0"/>
<stop offset="0.9357" stop-color="#BB00AF"/>
<stop offset="1" stop-color="#B900B4"/>
</linearGradient>
</defs>
</svg>
