<svg width="28" height="27" viewBox="0 0 28 27" fill="none" xmlns="http://www.w3.org/2000/svg">
<path fill-rule="evenodd" clip-rule="evenodd" d="M6.42947 13.3088C6.42947 12.4445 6.57292 11.6159 6.82926 10.8387L2.34494 7.41449C1.47095 9.18888 0.978653 11.1884 0.978653 13.3088C0.978653 15.4274 1.47053 17.4255 2.34307 19.1989L6.82489 15.768C6.57105 14.9944 6.42947 14.1688 6.42947 13.3088Z" fill="#FBBC05"/>
<path fill-rule="evenodd" clip-rule="evenodd" d="M14.3029 5.44654C16.1804 5.44654 17.8762 6.11181 19.2086 7.20035L23.0846 3.32975C20.7227 1.27345 17.6945 0.00341797 14.3029 0.00341797C9.03731 0.00341797 4.51184 3.01458 2.34494 7.41449L6.82904 10.8387C7.86229 7.70242 10.8075 5.44654 14.3029 5.44654Z" fill="#EA4335"/>
<path fill-rule="evenodd" clip-rule="evenodd" d="M14.3029 21.1709C10.8078 21.1709 7.86249 18.9151 6.82925 15.7787L2.34494 19.2024C4.51184 23.6029 9.03731 26.6141 14.3029 26.6141C17.5527 26.6141 20.6556 25.46 22.9842 23.2979L18.7277 20.0073C17.5267 20.7639 16.0143 21.1709 14.3029 21.1709Z" fill="#34A853"/>
<path fill-rule="evenodd" clip-rule="evenodd" d="M27.0213 13.3087C27.0213 12.5225 26.9001 11.6757 26.7184 10.8896H14.3029V16.0303H21.4495C21.0922 17.7831 20.1196 19.1304 18.7278 20.0073L22.9842 23.2979C25.4303 21.0277 27.0213 17.6456 27.0213 13.3087Z" fill="#4285F4"/>
</svg>
