<svg width="61" height="61" viewBox="0 0 61 61" fill="none" xmlns="http://www.w3.org/2000/svg">
<path d="M35.599 43.2486C35.3882 43.1579 35.2086 43.0074 35.0824 42.8157C34.9562 42.624 34.889 42.3995 34.889 42.17C34.8875 42.006 34.9198 41.8434 34.9837 41.6924C35.0477 41.5414 35.142 41.4051 35.2608 41.2921C35.3333 41.223 35.4027 41.1549 35.4547 41.1001C35.8225 40.7129 36.1469 40.2869 36.4222 39.8294C37.1465 38.6207 37.5056 37.2283 37.456 35.82C37.4065 34.4118 36.9505 33.0481 36.1431 31.8932C35.3357 30.7384 34.2114 29.8419 32.9058 29.3119C31.6002 28.7819 30.1691 28.641 28.7852 28.9063C27.375 29.1532 26.0717 29.8188 25.0448 30.8164C24.0179 31.814 23.3149 33.0975 23.0272 34.5C22.7614 35.7076 22.8066 36.963 23.1587 38.1483C23.5108 39.3337 24.1583 40.4102 25.0403 41.2768C25.16 41.3903 25.2558 41.5265 25.3221 41.6775C25.3885 41.8285 25.4239 41.9912 25.4265 42.1561V42.1622C25.4287 42.3936 25.3624 42.6205 25.2361 42.8144C25.1098 43.0083 24.9291 43.1606 24.7165 43.2522C21.8076 44.4571 19.488 46.7558 18.2565 49.6536C17.3908 51.6381 16.9566 53.7839 16.9825 55.9489V57.5089C16.9825 57.8434 17.0484 58.1747 17.1765 58.4838C17.3045 58.7928 17.4922 59.0737 17.7288 59.3102C17.9654 59.5467 18.2463 59.7343 18.5554 59.8622C18.8645 59.9902 19.1958 60.056 19.5303 60.0559H40.7913C41.4668 60.0558 42.1145 59.7875 42.5921 59.3099C43.0696 58.8323 43.3379 58.1845 43.3379 57.5091V55.9334C43.3638 53.7693 42.9288 51.6244 42.0618 49.6414C40.8282 46.7461 38.5076 44.4507 35.599 43.2486Z" fill="#0058AF"/>
<path d="M21.8203 41.6829C20.8635 40.8659 19.7823 40.2069 18.6177 39.7308C18.4069 39.6401 18.2273 39.4895 18.1011 39.2978C17.975 39.1062 17.9077 38.8817 17.9077 38.6522C17.9062 38.4882 17.9385 38.3256 18.0025 38.1745C18.0665 38.0235 18.1609 37.8872 18.2798 37.7742C18.352 37.705 18.4216 37.637 18.4736 37.5821C18.8412 37.1952 19.1656 36.7693 19.4409 36.3121C20.1653 35.1035 20.5245 33.711 20.475 32.3028C20.4256 30.8945 19.9697 29.5307 19.1623 28.3758C18.3549 27.2209 17.2305 26.3244 15.9249 25.7944C14.6192 25.2644 13.1881 25.1236 11.8042 25.3889C10.3939 25.6358 9.09058 26.3013 8.06365 27.2989C7.03672 28.2966 6.33373 29.5801 6.04609 30.9826C5.78027 32.1902 5.82553 33.4456 6.17763 34.6309C6.52972 35.8162 7.17712 36.8927 8.05909 37.7594C8.17882 37.8728 8.27467 38.009 8.34099 38.16C8.40732 38.311 8.44278 38.4737 8.44529 38.6386V38.6449C8.44748 38.8763 8.38126 39.1032 8.25494 39.2972C8.12863 39.4911 7.94785 39.6434 7.73529 39.7349C4.82643 40.9399 2.50676 43.2385 1.27529 46.1362C0.409553 48.1207 -0.0247651 50.2665 0.00109016 52.4315V53.9922C0.00107703 54.3266 0.0669379 54.6578 0.194912 54.9668C0.322886 55.2757 0.510466 55.5565 0.746943 55.793C0.983419 56.0294 1.26416 56.217 1.57313 56.345C1.88211 56.473 2.21326 56.5388 2.54769 56.5388H14.2831V55.9495C14.2539 53.4013 14.7697 50.8763 15.7958 48.5437C17.0272 45.6768 19.1366 43.2746 21.8203 41.6829Z" fill="#0058AF"/>
<path d="M59.0422 46.1235C57.8088 43.2284 55.4884 40.9329 52.5801 39.7308C52.3694 39.64 52.1898 39.4895 52.0636 39.2978C51.9374 39.1061 51.8702 38.8817 51.8701 38.6522C51.8687 38.4882 51.9009 38.3256 51.9649 38.1746C52.0289 38.0235 52.1232 37.8873 52.242 37.7742C52.3145 37.705 52.3841 37.637 52.4358 37.5821C52.8036 37.1952 53.1281 36.7694 53.4034 36.3121C54.1278 35.1034 54.4869 33.711 54.4375 32.3027C54.388 30.8945 53.9321 29.5307 53.1247 28.3758C52.3173 27.2209 51.1929 26.3244 49.8873 25.7944C48.5817 25.2644 47.1505 25.1236 45.7666 25.3889C44.3564 25.6357 43.053 26.3013 42.0261 27.2989C40.9992 28.2965 40.2962 29.58 40.0086 30.9826C39.7427 32.1902 39.788 33.4456 40.14 34.6309C40.4921 35.8163 41.1395 36.8927 42.0215 37.7594C42.1413 37.8728 42.2371 38.009 42.3034 38.16C42.3697 38.311 42.4052 38.4737 42.4077 38.6386V38.6449C42.41 38.8763 42.3437 39.1032 42.2174 39.2972C42.0911 39.4911 41.9103 39.6434 41.6977 39.7349C40.536 40.2108 39.4574 40.8686 38.5024 41.6836C41.1818 43.2722 43.2889 45.6688 44.5212 48.5295C45.5497 50.8612 46.0667 53.3862 46.0373 55.9345V56.5388H57.7717C58.4472 56.5388 59.0949 56.2705 59.5725 55.7929C60.0501 55.3153 60.3185 54.6676 60.3185 53.9922V52.4156C60.3444 50.2514 59.9093 48.1065 59.0422 46.1235Z" fill="#0058AF"/>
<path d="M17.685 15.0723L20.1174 15.5288C20.3452 15.5698 20.5583 15.6699 20.7353 15.8191C20.9124 15.9682 21.0472 16.1612 21.1262 16.3788C21.2372 16.6936 21.3647 17.0022 21.5083 17.3035C21.6059 17.5131 21.6468 17.7446 21.627 17.9749C21.6072 18.2053 21.5274 18.4264 21.3955 18.6163L19.9988 20.6581C19.8854 20.8237 19.8336 21.0237 19.8521 21.2236C19.8707 21.4234 19.9586 21.6105 20.1006 21.7523L21.5849 23.2367C21.7268 23.3787 21.9138 23.4666 22.1137 23.4852C22.3135 23.5038 22.5136 23.4519 22.6792 23.3385L24.7209 21.9418C24.9108 21.8099 25.1319 21.7301 25.3623 21.7103C25.5926 21.6905 25.8241 21.7315 26.0337 21.8291C26.3351 21.9725 26.6438 22.1 26.9585 22.2111C27.1761 22.2901 27.3692 22.4248 27.5184 22.6019C27.6675 22.7789 27.7676 22.992 27.8085 23.2199L28.265 25.6523C28.3019 25.8496 28.4067 26.0277 28.5611 26.1559C28.7156 26.2841 28.91 26.3542 29.1107 26.3541H31.2104C31.4111 26.3542 31.6056 26.2841 31.76 26.1559C31.9145 26.0278 32.0193 25.8496 32.0562 25.6523L32.5127 23.2199C32.5537 22.9921 32.6537 22.779 32.8029 22.6019C32.9521 22.4249 33.1451 22.2901 33.3627 22.2111C33.6775 22.1 33.9862 21.9725 34.2875 21.829C34.4971 21.7314 34.7286 21.6905 34.9589 21.7103C35.1892 21.7301 35.4104 21.8099 35.6002 21.9418L37.642 23.3385C37.8077 23.4518 38.0078 23.5037 38.2076 23.4851C38.4075 23.4665 38.5946 23.3786 38.7365 23.2367L40.2204 21.7525C40.3624 21.6107 40.4503 21.4236 40.4689 21.2238C40.4875 21.0239 40.4356 20.8239 40.3222 20.6583L38.9255 18.6165C38.7936 18.4266 38.7138 18.2055 38.694 17.9752C38.6742 17.7449 38.7151 17.5134 38.8127 17.3038C38.9563 17.0025 39.0838 16.6938 39.1948 16.379C39.2739 16.1614 39.4086 15.9684 39.5857 15.8193C39.7627 15.6701 39.9758 15.57 40.2036 15.529L42.6359 15.0725C42.8332 15.0356 43.0114 14.9309 43.1396 14.7764C43.2678 14.6219 43.3379 14.4275 43.3378 14.2268V12.1275C43.3379 11.9268 43.2678 11.7324 43.1396 11.5779C43.0114 11.4234 42.8332 11.3187 42.6359 11.2818L40.2036 10.8254C39.9758 10.7844 39.7627 10.6843 39.5857 10.5351C39.4086 10.386 39.2739 10.193 39.1948 9.9754C39.0838 9.66061 38.9563 9.35191 38.8127 9.0506C38.7151 8.84101 38.6742 8.6095 38.694 8.37915C38.7138 8.14881 38.7936 7.92767 38.9255 7.7378L40.3222 5.696C40.4357 5.53037 40.4876 5.33026 40.469 5.13036C40.4504 4.93046 40.3625 4.74337 40.2204 4.6015L38.7361 3.1173C38.5942 2.97525 38.4071 2.8873 38.2072 2.86871C38.0073 2.85012 37.8072 2.90205 37.6416 3.0155L35.5998 4.4122C35.41 4.54411 35.1888 4.62393 34.9585 4.6437C34.7282 4.66348 34.4967 4.62251 34.2871 4.5249C33.9858 4.38144 33.6771 4.25394 33.3623 4.1429C33.1447 4.06387 32.9517 3.9291 32.8025 3.75207C32.6534 3.57503 32.5533 3.36194 32.5123 3.1341L32.0558 0.7015C32.0187 0.504378 31.914 0.326399 31.7596 0.198314C31.6052 0.0702299 31.411 8.53181e-05 31.2104 9.06302e-08H29.1104C28.9097 -9.2005e-05 28.7153 0.0700071 28.5609 0.198157C28.4064 0.326307 28.3017 0.504438 28.2647 0.7017L27.8084 3.1343C27.7674 3.36212 27.6673 3.57518 27.5181 3.75221C27.369 3.92923 27.176 4.06402 26.9584 4.1431C26.6436 4.25408 26.3349 4.38159 26.0336 4.5251C25.824 4.62271 25.5925 4.66367 25.3622 4.6439C25.1318 4.62413 24.9107 4.54431 24.7208 4.4124L22.6792 3.0155C22.5136 2.90208 22.3136 2.85014 22.1137 2.8687C21.9139 2.88725 21.7268 2.97513 21.5849 3.1171L20.1004 4.6014C19.9584 4.74326 19.8705 4.93034 19.8519 5.13022C19.8333 5.33009 19.8852 5.53018 19.9986 5.6958L21.3953 7.7376C21.5272 7.92747 21.607 8.14861 21.6268 8.37895C21.6466 8.6093 21.6057 8.84081 21.5081 9.0504C21.3645 9.35171 21.237 9.66041 21.126 9.9752C21.047 10.1928 20.9122 10.3858 20.7352 10.535C20.5581 10.6841 20.3451 10.7842 20.1172 10.8252L17.6848 11.2817C17.4876 11.3187 17.3095 11.4235 17.1813 11.5779C17.0531 11.7323 16.9829 11.9267 16.9829 12.1274V14.2265C16.9828 14.4273 17.053 14.6217 17.1812 14.7762C17.3094 14.9307 17.4877 15.0354 17.685 15.0723ZM30.1604 8.293C31.1264 8.293 32.0706 8.57944 32.8738 9.1161C33.677 9.65275 34.303 10.4155 34.6726 11.308C35.0423 12.2004 35.139 13.1824 34.9506 14.1298C34.7621 15.0772 34.297 15.9474 33.614 16.6305C32.9309 17.3135 32.0607 17.7787 31.1133 17.9671C30.1659 18.1556 29.1839 18.0589 28.2915 17.6893C27.399 17.3196 26.6362 16.6936 26.0996 15.8905C25.5629 15.0873 25.2764 14.1431 25.2764 13.1771C25.2764 11.8818 25.791 10.6395 26.7069 9.72358C27.6228 8.80765 28.8651 8.29305 30.1604 8.293Z" fill="#0058AF"/>
</svg>
