<svg width="76" height="90" viewBox="0 0 76 90" fill="none" xmlns="http://www.w3.org/2000/svg">
<path d="M54.1145 59.3705L44.5971 22.1228C44.5779 22.042 44.5471 21.9646 44.5056 21.8928C44.1854 21.318 43.122 20.1052 40.0804 21.0804C39.4519 21.3738 38.9034 21.8155 38.4814 22.368C38.0283 21.7928 37.4465 21.3333 36.7834 21.0268C33.8637 20.109 32.8079 21.3257 32.4877 21.8909C32.4462 21.9627 32.4154 22.0401 32.3963 22.1209L22.8826 59.3705L12.4523 69.857C12.3655 69.945 12.2969 70.0494 12.2503 70.1641C12.2037 70.2789 12.1801 70.4017 12.1807 70.5256C12.1813 70.6495 12.2062 70.7721 12.2539 70.8864C12.3017 71.0006 12.3713 71.1043 12.4589 71.1915C12.5465 71.2787 12.6503 71.3477 12.7644 71.3945C12.8786 71.4414 13.0007 71.4651 13.124 71.4645C13.2472 71.4639 13.3692 71.4389 13.4828 71.3909C13.5965 71.3429 13.6996 71.2728 13.7863 71.1848L24.3958 60.5201C24.5138 60.4008 24.5981 60.252 24.6397 60.089L34.1686 22.7512C34.4011 22.5232 35.1349 22.4734 36.0992 22.7685C37.3475 23.3778 37.5666 24.33 37.5666 26.1062V39.6928C37.3287 39.4873 37.0736 39.3027 36.8043 39.141L36.5528 38.9935C36.0937 38.7216 35.5747 38.5684 35.0423 38.5477C34.51 38.527 33.9808 38.6394 33.5022 38.8748C33.0236 39.1103 32.6106 39.4614 32.3002 39.8968C31.9898 40.3321 31.7916 40.8381 31.7235 41.3693L29.3889 59.6656C29.3675 59.7906 29.3714 59.9187 29.4004 60.0422C29.4295 60.1657 29.483 60.282 29.558 60.3841C29.6329 60.4862 29.7276 60.572 29.8363 60.6364C29.9451 60.7008 30.0657 60.7424 30.1909 60.7587C30.316 60.775 30.4432 60.7656 30.5646 60.7312C30.6861 60.6968 30.7994 60.6381 30.8978 60.5585C30.9961 60.479 31.0774 60.3802 31.1367 60.2683C31.1961 60.1563 31.2323 60.0334 31.2433 59.907L33.5778 41.6108C33.6059 41.3874 33.6888 41.1746 33.8191 40.9915C33.9493 40.8084 34.1229 40.6608 34.324 40.5619C34.5252 40.4631 34.7477 40.4161 34.9714 40.4253C35.1951 40.4345 35.4131 40.4995 35.6056 40.6144L35.8591 40.7639C36.3799 41.0722 36.8119 41.5115 37.1127 42.0386C37.4134 42.5657 37.5725 43.1625 37.5743 43.7701V61.0413C37.5743 67.3086 34.9996 69.993 33.4635 71.0372C31.249 72.5433 29.3089 74.4018 27.8643 75.8542L23.3514 80.3894C23.2647 80.4766 23.1959 80.5801 23.149 80.694C23.102 80.8079 23.0779 80.93 23.0779 81.0533C23.0779 81.1766 23.102 81.2987 23.149 81.4126C23.1959 81.5265 23.2647 81.63 23.3514 81.7172C23.4381 81.8044 23.5411 81.8736 23.6544 81.9208C23.7677 81.9679 23.8891 81.9922 24.0118 81.9922C24.1344 81.9922 24.2558 81.9679 24.3692 81.9208C24.4825 81.8736 24.5854 81.8044 24.6721 81.7172L29.1774 77.1896C30.5591 75.7967 32.4172 74.0186 34.5002 72.5911C35.7047 71.7749 37.439 70.1405 38.5024 67.117C39.562 70.1405 41.2963 71.7749 42.5045 72.5911C44.5875 74.009 46.4457 75.7871 47.8293 77.1896L52.3422 81.7249C52.5173 81.901 52.7548 81.9999 53.0025 81.9999C53.2502 81.9999 53.4877 81.901 53.6629 81.7249C53.838 81.5488 53.9364 81.31 53.9364 81.061C53.9364 80.812 53.838 80.5732 53.6629 80.3971L49.1519 75.8618C47.7054 74.4095 45.7653 72.5509 43.5508 71.0449C42.0166 70.0026 39.4419 67.3182 39.4419 61.049V43.774C39.4431 43.1675 39.6007 42.5718 39.8993 42.0448C40.1979 41.5179 40.6274 41.0779 41.1457 40.7677L41.4049 40.6144C41.5976 40.5003 41.8154 40.436 42.0389 40.4275C42.2624 40.419 42.4845 40.4665 42.6852 40.5657C42.8859 40.6649 43.0589 40.8126 43.1887 40.9957C43.3185 41.1788 43.401 41.3915 43.4288 41.6146L45.7634 59.9108C45.778 60.0337 45.8167 60.1524 45.8774 60.2601C45.9381 60.3677 46.0196 60.4621 46.117 60.5378C46.2144 60.6134 46.3258 60.6688 46.4448 60.7006C46.5637 60.7324 46.6878 60.7401 46.8097 60.7232C47.0556 60.6908 47.2788 60.5616 47.4302 60.3641C47.5817 60.1666 47.6491 59.9168 47.6177 59.6694L45.2832 41.3732C45.215 40.8423 45.0171 40.3367 44.707 39.9016C44.3969 39.4665 43.9844 39.1154 43.5063 38.8799C43.0283 38.6443 42.4996 38.5315 41.9676 38.5517C41.4355 38.5719 40.9168 38.7243 40.4577 38.9954L40.1985 39.1467C39.9287 39.3062 39.6736 39.4896 39.4362 39.6947V26.11C39.4362 24.3339 39.6554 23.3816 40.7703 22.8221C41.8566 22.4792 42.596 22.529 42.8304 22.7551L52.3593 60.0928C52.401 60.2558 52.4852 60.4047 52.6033 60.524L63.2127 71.1924C63.2984 71.2847 63.4016 71.3586 63.5162 71.41C63.6308 71.4613 63.7546 71.4889 63.88 71.4911C64.0055 71.4934 64.1301 71.4703 64.2465 71.4231C64.3629 71.376 64.4687 71.3058 64.5575 71.2167C64.6464 71.1276 64.7165 71.0215 64.7637 70.9046C64.811 70.7877 64.8343 70.6625 64.8324 70.5364C64.8306 70.4102 64.8035 70.2857 64.7527 70.1703C64.702 70.0549 64.6288 69.951 64.5373 69.8646L54.1145 59.3705Z" fill="#0058AF"/>
<path d="M69.9954 39.6891C69.9786 39.4939 69.9016 39.3089 69.7752 39.1598C69.6488 39.0107 69.4793 38.9051 69.2903 38.8575C69.2102 38.8384 61.3317 36.7844 60.4741 30.084C59.6661 23.7611 63.7025 21.3699 64.2361 21.0786L64.3181 21.0365C64.5395 20.9244 64.7075 20.7285 64.7852 20.4919C64.863 20.2553 64.844 19.9973 64.7326 19.7748C64.6211 19.5522 64.4263 19.3832 64.1909 19.3051C63.9556 19.2269 63.699 19.246 63.4776 19.358L63.4033 19.3944C62.8316 19.6837 56.6721 22.5846 52.3688 18.4613C48.2943 14.5641 50.6631 9.57091 50.7661 9.36206C50.8685 9.15492 50.8913 8.91703 50.8301 8.69403C50.7688 8.47103 50.6278 8.27861 50.4341 8.1537C50.2404 8.02879 50.0077 7.98018 49.7806 8.01718C49.5534 8.05419 49.3479 8.17421 49.2033 8.35422C49.1557 8.40979 44.5361 14.1713 38.4852 13.9586C32.4 14.0813 27.8414 8.40404 27.7938 8.35231C27.6495 8.17101 27.4435 8.04989 27.2156 8.01235C26.9877 7.97482 26.754 8.02352 26.5597 8.14905C26.3654 8.27459 26.2243 8.46805 26.1636 8.69207C26.1029 8.9161 26.1269 9.15479 26.231 9.36206C26.2596 9.41379 28.7276 14.5354 24.6283 18.469C20.3269 22.5923 14.3123 19.7623 13.6071 19.4097L13.5195 19.3657C13.2981 19.2536 13.0415 19.2346 12.8061 19.3127C12.5708 19.3909 12.3759 19.5598 12.2645 19.7824C12.153 20.005 12.1341 20.263 12.2118 20.4996C12.2896 20.7362 12.4576 20.9321 12.679 21.0441C12.6942 21.0441 12.7171 21.0652 12.7571 21.0824C13.2908 21.3679 17.331 23.7477 16.523 30.0878C15.6654 36.7939 7.78686 38.8422 7.70682 38.8613C7.51838 38.9091 7.34942 39.0147 7.2234 39.1635C7.09738 39.3122 7.02055 39.4967 7.00358 39.6914C6.9866 39.886 7.03033 40.0811 7.12869 40.2497C7.22705 40.4182 7.37516 40.5517 7.55245 40.6318C14.276 43.6265 14.196 50.8212 14.1884 51.1259C14.1833 51.3746 14.2765 51.6151 14.4477 51.7948C14.6188 51.9744 14.8539 52.0784 15.1013 52.0839C15.3466 52.0842 15.5825 51.9893 15.76 51.8191C15.9375 51.6488 16.0429 51.4163 16.0541 51.17C16.0541 50.8481 16.1685 43.8564 10.232 39.9592C13.0087 38.779 17.6474 35.9854 18.3735 30.3254C18.8385 26.6849 17.9256 24.104 16.7688 22.3719C19.4369 22.8318 22.9721 22.6498 25.9166 19.8313C28.6209 17.2408 29.0192 14.2288 28.7962 11.964C30.9288 13.7402 34.2887 15.8402 38.2965 15.8402H38.4871C42.5026 15.9226 46.0359 13.7689 48.2066 11.964C47.9836 14.2269 48.3819 17.2408 51.0862 19.8332C54.0345 22.6536 57.5659 22.8337 60.234 22.3739C59.0772 24.0983 58.1643 26.6792 58.6293 30.3273C59.3554 35.9873 63.9941 38.7809 66.7708 39.9611C60.8343 43.8584 60.941 50.85 60.9486 51.1719C60.9551 51.417 61.0565 51.65 61.2313 51.8211C61.4061 51.9921 61.6404 52.0878 61.8844 52.0877H61.9092C62.1558 52.0812 62.3899 51.9768 62.5603 51.7973C62.7306 51.6178 62.8233 51.3778 62.8182 51.1297C62.8182 51.055 62.702 43.6457 69.4542 40.6375C69.6314 40.5558 69.7789 40.4205 69.8759 40.2505C69.9729 40.0804 70.0147 39.8841 69.9954 39.6891Z" fill="#0058AF"/>
</svg>
